<mxfile host="app.diagrams.net" agent="Mozilla/5.0 (Windows NT 10.0; Win64; x64) AppleWebKit/537.36 (KHTML, like Gecko) Chrome/135.0.0.0 Safari/537.36" version="26.2.10">
  <diagram name="Page-1" id="JrmlIoXZ4loD55eAujXN">
    <mxGraphModel dx="2570" dy="1335" grid="1" gridSize="10" guides="1" tooltips="1" connect="1" arrows="1" fold="1" page="1" pageScale="1" pageWidth="1920" pageHeight="1080" math="0" shadow="0">
      <root>
        <mxCell id="0" />
        <mxCell id="1" value="1P" parent="0" />
        <mxCell id="uFK_l24jNaTMNd1LNEe2-8" value="" style="ellipse;whiteSpace=wrap;html=1;aspect=fixed;fillColor=none;dashed=1;dashPattern=12 12;strokeColor=light-dark(#000000,#FFFFFF);opacity=30;strokeWidth=3;" parent="1" vertex="1">
          <mxGeometry x="260" y="520" width="320" height="320" as="geometry" />
        </mxCell>
        <mxCell id="uFK_l24jNaTMNd1LNEe2-9" value="" style="ellipse;whiteSpace=wrap;html=1;aspect=fixed;fillColor=none;dashed=1;dashPattern=8 8;strokeWidth=4;strokeColor=light-dark(#000000,#FFFFFF);opacity=60;" parent="1" vertex="1">
          <mxGeometry x="305" y="565" width="230" height="230" as="geometry" />
        </mxCell>
        <mxCell id="uFK_l24jNaTMNd1LNEe2-10" value="" style="ellipse;whiteSpace=wrap;html=1;aspect=fixed;fillColor=none;dashed=1;strokeWidth=5;strokeColor=light-dark(#000000,#FFFFFF);" parent="1" vertex="1">
          <mxGeometry x="345" y="605" width="150" height="150" as="geometry" />
        </mxCell>
        <mxCell id="uFK_l24jNaTMNd1LNEe2-1" value="" style="shape=image;verticalLabelPosition=bottom;labelBackgroundColor=default;verticalAlign=top;aspect=fixed;imageAspect=0;image=data:image/png,iVBORw0KGgoAAAANSUhEUgAAAPAAAADwCAYAAAA+VemSAAAAAXNSR0IArs4c6QAADx1JREFUeF7tnQ1S3EgSRiXAt3Az5iRjn8TDSWxOYs9JzJ4EL80tgOjtYqWJnqZBSql+vqx6REzEGFKl1Jf5OlOl6lLf8YMCKOBWgd6t5ziOAijQATBJgAKOFQBgx8HDdRQAYHIABRwrAMCOg4frKADA5AAKOFYAgB0HD9dRAIDJARRwrAAAOw4erqMAAJMDKOBYAQB2HDxcRwEAJgdQwLECAOw4eLiOAgBMDqCAYwUA2HHwcB0FAJgcQAHHCgCw4+DhOgoAMDmAAo4VAGDHwcN1FABgcgAFHCsAwI6Dh+soAMDkAAo4VgCAHQcP11EAgMkBFHCsAAA7Dh6uowAAkwMo4FgBAHYcPFxHAQAmB1DAsQIA7Dh4uI4CAHyQA3d3d5/Oz88/933/R/h13/efdrvdy3/D//8efv+77/uX/9/tdr93u91/n5+fb6+url5+xw8K5FKgeYADtBcXF1/3IP4VIF0jfIB5P8bPruv+s9lsbteMxbEoMEeBJgEeod0L9H2OSEtsAsxnZ2e3j4+PN1TmJQpyzBwFmgI4B7jHoo9VebPZ3MwJCDYoYFGgGYC32+23lBV3SnRAnlKIvy9RoHqAt9vt567rfi0RJ8UxAeT9/NjN5eVluFfmBwVWKVA1wPf392Fi6scqhRIcTDVOIGqjQ1YL8MPDw48wsywe1+/cG4tHSNy96gAeJqpC1Q2ts/xPqMaXl5dX8o7ioKQCVQHsDd4xIwLEz8/PX3jcJMmItFNVAbzdbsNklYvKe5wVVGJpTmSdqwZgz/CO2RFWcX38+PFaNltwTE6BKgAu/Yw3clSZ2IosaM3DuQdY7TlvpGQB4khC1j6Ma4ArhfflG05931/zhYja8Vt/fd4BdjtpNSN0t5vN5ssMO0waVsAtwLVW36Nc/EIVbpjOGZfuGeCaq+8YOqrwjCRu2cQlwKprnBMlElU4kbA1DOsS4Bqe+c5NHhZ4zFWqTTt3ADdWfcespAq3yefkVbsD2Mm3jCaFtxiwQsuiVlu27gC+v7+/W7v5nLcQ00Z7i1g+f90BvF82ucsnj9SZaKOlwqHhjCuAG73/HTOF5ZUazEh54QrglmafT2QJz4Sl0NFwxhvArbbPL+uj2blDAxolLwBYKRoTvuz3z3IVL0fSunXVTUIM2+XcuVU6guNPT09XbLsTQciKhnADcCNfXphKLWaipxRq7O9uAG58BnpMSwBuDNCpywXgKYWE/r5/jek1b3QQCoiAK24Armzfq6Wh51nwUuUqPc4NwLTQLy8TpwJXCuLSy3IDMJNYALw0yZceN76ONqy9V93uF4CXRrfMcUxiZdD9+D3Syoto3ADMc+Cu4zlwWnrfewG86lc6AThtTkQdnZVYUeX8Z7D3wB2NVKuwG4CDkA1/lfAljwA4LsAB3A8fPnyb+xpaxUlEbwC3sBPlySxVbeHiIpVnNCu4ylXYG8Df9mJ+zxNmrbMofvprKTTtzVJwD0dWi4MrgFueyGICaxrQtyxigKtahV0BPNwHN9lGc/9rBzgmuKpV2CPAzbXR3P/a4E0FrmIV9gjw567rQhVu6YcFHDOinRpcxSrsDuDhPvhH13UB5Op/VJ8/KglfIidU4uIO4OE+uKUqTPV949OiBLhqVdglwA1NZrET5Ql4S4OrdC/sGeAWqjDV9wBgFXCDS6GF7vv+uvT7m90CXHsVTjHzHADwuCmeErgh71LEZumcgmuAK1/YEaX6jgv1x/W+ClVjbrKqgTtUXqlNFVwDHAStdKeOVfAeQnv8Ijil6vEWyGHzht1u90PpJXYqLfOxZu4BHlrpmhZ3LNr36j1oj2ZOJe7dTsGrCK5ay1wlwBVBbJp1ngvtCVhM55nb8i61UwVXsWWuFmDF+yVjQs+C6uDL52EWfs1illVtuvHaTpqLg/v7+fn5i/qkXxUt9JgdIbnPz89/Kd07zUn0qVU9EaE9dGfWB8Yc/602yuCqt8zVVuBDiC27LFiTL4H9SZASQXvsftYqrA7uIE5WTdbmU1UV+BDii4uLr/t/S3/5/3hGOBO02auwB3BDF+ShZa6+Ah9eoPLbHMadHQpAm60KB/3D82f1WxoPj9beqtRVVuDDi1W7Lw6f9PvFPDd93/8xTEKtmYha24GF46PfC3sB12PL3FQFFm2pb1fOHseANkkV9gSu15a5SYBFQU4B4tIxV1dh5duVV0nf9z9VX5ViDWD1LfQpQeZs5G0VsgL7VbOvjtalr7pOtTg3CfDxPfIwY712YYRabE3+xNgu9eHh4cfcTdJNzkUwrqVlbrqFnsqDYcLrc5hgGmdOd7vdp/Bf+PcwARW+ThbWE/8Ovxe8n526zOO/3z49PV3HWHGkWoU9zzJPBbP5Cjwl0PHfh9ec/rn/vfQz5qnrSvXtGsEqXFXLTAWeyuwTf68F2nBpqcA9mii8WyBz1ENqbZkBeGaa1DbRNT5/vry8/DlTgsVmAjPSi76SufiCCx5IC30gfm3QHlTcn/s3O9zkyrNS98Kpu4tc+lnO0zzANUJbCtzDxMu9U0orLTMtdNd1tUKrAG7wocCXF5ppmZsFuGZoD4JaNJFzg9tiy9wUwI1AG2JaFNwSu6G02jJXD3BD0L6Au39v8N8xFmFYJk4OHxkV2jyh6AfWEq1SHVPFJFZj0IZciLZ6aklildKblvl1tNwCvGJHxiU5K3FM6QQuBe44Oedxx4zUieMK4BahPZhZLvYenpLgDgDQMr/xSSAPcKvQjuCG3TtyrJ46lR+lwS3dcaSunjHGlwXY0+4OMQJxOMaQuFlXTx1fQ+nlkMwyz8sqOYBLJ8482dJYqYArsBEdLfPMFJMBuMSzxJkaJTcTAbf4C8Vome2pJgHw8HW9X3b3qziiaLXJvXrqnYit3perimwwXkRxgEt9c8WoUwrzouCKdTxFtUgR3FxjFgd4u92Gylt6b+RceofztLp66pXGtMzr064owLm/crZerlUjNLl6ipZ5Vc5MHlwa4Dv1125MKjhhULrKlH6W+4Y8tMxrE2s4vhjAtVdfwH2doaU1icSM1DDFABbcvTBKYHLuPfWWw6LP0plljpJh/x6kGMD39/dVtc8iz3K/hUmyBHmydkha5rUKvnF8MYD3VWKX6JqyDqsCrsDqKWaZs2be/09WBOAa7n9FwC2+eopZ5gLUHpwSgJfpX7QlFFuEcUrBovosC6nPowDYFreiiakOLrPMtmSKYQ3AM1QML8d6fHy8aXDvqRnq/GPCLLNFrUi2RQB29OUFVk/NS7Sinck8F+u0KgKw+hcYSreCoqunmGUW/AwoAnDQQfE5MOCaMpSW2SRXGuNiACutxGL1lDm5aJnNkqU5oBjACvfBIs9yVVdP0TKnYS7qqMUADldR6rvAKuAqrp5iYUZUvpIPVhTg3CuyRMBVXj31VsJxv5scxWUnKApwcDnjvXDR+zb1RRgT6VNUu2Wp3cZRxQEOiX1+fv4r4Rf7iyafc3BHCopq2AaKy66yOMDB7UQQF1+EUejNfcsy4f2jADiFqhHGlAA4MsTFwb24uPi6vybF7+UuTRkAXqpc4uNkAB4hXpr8LMJImikAnFTe5YNLATxextBSfz47O/szPGp56/LGWeXSL7le+qGzPGzZjwTg7JLPO6EkwMeuDxNBnw5/v9lsbuddYjor0b2nUlwwAKdQNcKYLgCOcJ1Rh2gIXGaho2ZO/MEA2KBpWHjSdd23hI+8DN5kNaUCZ5V7/skAeIZWQi8Am+FtEhMATiLr+kEB+B0NK1mEsT5Lug6AY6iYYAwAPiEq4L4SBYATwBdjSAA+UDGAW9HqqRj5wSRWTBUTjAXAw1LOBp7lrkkfKvAa9RIe2zTAXvaeShj/uUMD8FylMts1C7DCjiCZY73mdAC8Rr2Ex7YMsJutbBLGf+7QADxXqcx2AJxZcKenA2DRwAGwaGDE3AJgsYCM7gCwaGDE3AJgsYAA8HbLPfD8pATg+VpltaQCZ5Xb7ckAWDR0ACwaGDG3AFgsILTQtNCWlARgi1oZbanAGcV2fCoAFg0eAIsGRswtABYLCC00LbQlJQHYolZGWypwRrEdnwqARYMHwKKBEXMLgMUCQgtNC21JSQC2qJXRlgqcUWzHpwJg0eABsGhgxNwCYLGA0ELTQltSEoAtamW0pQJnFNvxqQBYNHgALBoYMbcAWCwgtNC00JaUBGCLWhltqcAZxXZ8KgAWDR4AiwZGzC0AFgsILTQttCUlAdiiVkZbKnBGsR2fCoBFgwfAooERcwuAxQJCC00LbUlJALaoldGWCpxRbMenAmDR4AGwaGDE3AJgsYDQQtNCW1ISgC1qZbSlAmcU2/GpAFg0eAAsGhgxtwBYLCC00LTQlpQEYItaGW2pwBnFdnwqABYNHgCLBkbMLQAWCwgtNC20JSUB2KJWRlsqcEaxHZ8KgEWDB8CigRFzC4DFAkILTQttSUkAtqiV0ZYKnFFsx6cCYNHgAbBoYMTcAmCxgNBC00JbUhKALWpltKUCZxTb8akAWDR4ACwaGDG3AFgsILTQtNCWlARgi1oZbanAGcV2fCoAFg0eAIsGRswtABYLCC00LbQlJQHYolZGWypwRrEdnwqARYMHwKKBEXMLgMUCQgtNC21JSQC2qJXRlgqcUWzHpwJg0eABsGhgxNwCYLGA0ELTQltSEoAtamW0pQJnFNvxqQBYNHgALBoYMbcAWCwgtNC00JaUBGCLWhltqcAZxXZ8KgAWDR4AiwZGzC0AFgsILTQttCUlAdiiVkZbKnBGsR2fCoBFgwfAooERcwuAxQJCC00LbUlJALaoldGWCpxRbMenAmDR4DULsGg8cAsFTAoAsEkujFFASwEA1ooH3qCASQEANsmFMQpoKQDAWvHAGxQwKQDAJrkwRgEtBQBYKx54gwImBQDYJBfGKKClAABrxQNvUMCkAACb5MIYBbQUAGCteOANCpgUAGCTXBijgJYCAKwVD7xBAZMCAGySC2MU0FIAgLXigTcoYFIAgE1yYYwCWgoAsFY88AYFTAoAsEkujFFASwEA1ooH3qCASQEANsmFMQpoKQDAWvHAGxQwKQDAJrkwRgEtBQBYKx54gwImBQDYJBfGKKClAABrxQNvUMCkAACb5MIYBbQUAGCteOANCpgUAGCTXBijgJYCAKwVD7xBAZMCAGySC2MU0FLgf4zCbVp4ww7kAAAAAElFTkSuQmCC;" parent="1" vertex="1">
          <mxGeometry x="170" y="650" width="240" height="240" as="geometry" />
        </mxCell>
        <mxCell id="uFK_l24jNaTMNd1LNEe2-3" value="" style="shape=image;verticalLabelPosition=bottom;labelBackgroundColor=default;verticalAlign=top;aspect=fixed;imageAspect=0;image=data:image/png,iVBORw0KGgoAAAANSUhEUgAAAPAAAADwCAYAAAA+VemSAAAAAXNSR0IArs4c6QAADzpJREFUeF7t3etxGzsShuFRiWGYLDMTK5I9jsRyJPJGYm0kcpEKg6w5HFtcXcwLMH1BA3j316kypgF+3c8OKVHkzcD/SIAEqk3gptqTc3ASIIEBwAwBCVScAIArbh5HJwEAMwMkUHECAK64eRydBADc+Aw8PT19Xq/Xvxp/mN0+PAA33PrtdvtzGIYvu91uDeI2Gw3gNvs6HPEeHx6I22w0gBvs60e8IG6wyS8PCcCN9fYcXhA31mgAt9fQa3hB3F7PuQM30tNUvCBupOHcgdtpZC5eELfTe+7AlfdyLl4QV9547sD1N1CKF8T1zwB34Ep7qIUXxJUOAHfgehunjRfE9c4Cd+DKemeFF8SVDQJ34PoaZo0XxPXNBHfgSnrmhRfElQwEd+B6GuWNF8T1zAZ34OC9KoUXxMEHgztw7AZNf4i/WCwepr/nLX1S/hSxdAfO788dOGBvIuGd4hnH8dd+v7/jQwHiDQuAg/UkGt5jPCAONig8hY7XkKh4QRxvVo4n4g4cpDdWeKc7583NzWeth8mdWCtJnToA1slRVMUQ79f9fv94e3v7E8SiFoW9GMCFW2OJd7Va/Zge3rQHiAs32mh7ABsFm1LWA+/xHCBO6Uh9awBcqGeeeEFcqMkO2wLYIeSPW5TAC+ICjXbYEsAOIb/doiReEDs322E7ADuE/BaOxdsjx3H8evyBVerD4TVxalKx1wHYqT8R7rynnsrz02mnATDaBsBGwUZ72nzuYXIndhgAwy0AbBjuVDrinZc7sXHTHcsD2DDsGvDygy3DAXAoDWCjkGvCC2KjIXAoGx7wdrsdHXKoYos5P23OfWAWr4lzzxBp/XK5DG0k9OGmRgL4/+N8t1wuHz2GG8SvKQNYOHEA/h2gG95ju7bb7ZdxHB80/4pJOApFLgewMHYA++MFMXdgIdvXyzsH7H7n/di43u/E3IGFlDsGXBwvd+JhADCA5yQQBm/viAE8Z3zfXNPhHTgc3p4RAxjAOQmExdsrYgDnjO+JtR3dgcPj7RExgAGckkA1eHtDDOCU8b2wpoM7cHV4e0IMYABfSqBavL0gBjCAzyVQPd4eEAMYwKcSaAZv64gBXBBw9PCF0XB5YgKSn6NEn6Gm/5wweviJ8zd72fPz88P0ZWSHHL7PLtLAhQAu2MSWw7eM9QXvPy973PeMuOUZ4g5sqahQ7Q94j6foFjGACw3itG3L4VvEegZv14hbniHuwBaKCtW8grdbxAAuNJDcgdODT8TbJWIAp8+R+sqWw9cKKxNvd4hbniGeQmspKlRnJt6uEAO40HDyFPpy8EK83SAGMIALJnB6ayW8XSAGcMHxbTn8ubEq420eccszxGvguYoKXWeEt2nEAC40rLwGfh+8Md5mEQMYwAUT+LO1E94mEQO44Pi2HH5qrM54m0Pc8gzxGjhVUaF1hfA2hRjAhYa399fAhfE2gxjAAHZPIAjeJhAD2H18XzdsOfxzsQbDWz3ilmeI18AZ/+ckGYSMbbpfqv1RSJK+aZ9Fu7kAzkhUMggZ23S/VBuNpG/aZ9FuLoAzEpUMQsY23S/VRiPpm/ZZtJsL4IxEJYOQsU33S7XRSPqmfRbt5gI4I1HJIGRs0/1SbTSSvmmfRbu5AM5IVDIIGdt0v1QbjaRv2mfRbi6AMxKVDELGNt0v1UYj6Zv2WbSbC+CMRCWDkLFN90u10Uj6pn0W7eYCOCNRySBkbNP9Um00kr5pn0W7uQDOSFQyCBnbdL9UG42kb9pn0W4ugDMSlQxCxjbdL9VGI+mb9lm0mxsa8NPT0+fFYvE090Frhy8ZhLmPocfrIvVtt9ut1+v1r6h9CAtYincKPNIgRB2AiOeK1Lfp61n3+/1dVMQhAWvgBXBEmmlnigR4OnFkxOEAa+EFcBqWiKuiAY6MOBRgTbwAjkgz7UwRAUdFHAawNl4Ap2GJuCoq4IiIQwC2wAvgiDTTzqQNeLPZPN3c3HxO2/36qkiviYsDtsI7DMPdcrl8vN6O9BX8Gik9K8lKbcDb7fbLOI4PLSIuCrgmvNNAAljCMv1abcAvvWsScTHAteEFcDpA6UoLwK0iLgK4RrwAlrJMv94KcIuI3QHXihfA6QClKy0Bt4bYFXDNeAEsZZl+vTXglhC7Aa4dL4DTAUpXegBuBbEL4BbwAljKMv16L8AtIDYH3AreoF93kq6irpX3B8TfvY5c8++JTQGD12sEm9wHxAltNQMM3oT0WXItARBfScgEMHivzSX/npEAiC+EpQ4YvBmjydLUBEB8JilVwOBNnUfWzUgAxCdCUwMM3hkjySW5CYD4Q2IqgMGbO4esFyQA4jfhiQGDVzCKXDo3ARC/JCcCDN6588d1CgmAeBiG2YDBqzCClJAm0D3iWYDBK507rldMoGvE2YDBqzh6lNJKoFvEWYDBqzVv1DFIoEvEyYDBazBylNROoDvESYDBqz1n1DNMoCvEVwGD13DUKG2VQDeILwIGr9V8UdchgS4QnwUMXocRYwvrBJpHfBHw7e3tT82vo5i6NY7j19Vq9cO6c8f6h29T+Hb473uv/dgnTgIFZu3LMAw/NROYvodptVqtz9W8+hQaxJrtoJZXAj3gnbJM+iEWiL3Gjn00EugFbxLgadH0ehjEGqNFDesEesKbDBjE1mNHfY0EesObBRjEGiNGDasEesSbDRjEVuNHXUkCveKdBRjEklHjWu0EesY7GzCItceQenMS6B2vCDCI54wc12glAN4/SV79PfC1wPkV07WE+HftBMD7mqgYMHdi7fGk3qUEwPs+HRXAIAadRwLg/TtlNcAg9hjhfvcA7+neqwIGcb/ALB85eM+nqw4YxJaj3F9t8F7uuQlgEPcHzeIRg/d6qmaAQXw9fFacTwC8adNhChjEaU1g1fsEwJs+EeaAG0M8pkfLyrkJLJdLl7mczrfdbt0/BmduLqeucwuqhXdsHT5fC8Ca03emlhfg2vFO8bkBbuFODGAHvcMweABuAa874NoRA7gNwK3gLQK4ZsQArh9wS3iLAa4VMYDrBtwa3qKAa0QM4HoBt4i3OODaEAO4TsCt4g0B2BKx9k8zAVwtYNVf/137uhOflP7s4vprpEsPzOL3xAD2HCW9vSL3LRLeUIAt7sSRB0Fv3NurFLVv0fCGA6yNOOogtEdO9xFF7FtEvCEBayKOOAi6o95mtWh9i4o3LGAtxNEGoU1u+o8qUt8i4w0N+Ih4sVg8zR2RSIMw9zH0eF2kvmmfRbufYX4Kfe6BSX51ox2+5CzajWu5XqS+aZ9Fu28AzkgUwBlhCZZqo5H0TfssglhOXgrgjEQlg5CxTfdLtdFI+qZ9Fu3mAjgjUckgZGzT/VJtNJK+aZ9Fu7kAzkhUMggZ23S/VBuNpG/aZ9FuLoAzEpUMQsY23S/VRiPpm/ZZtJsL4IxEJYOQsU33S7XRSPqmfRbt5gI4I1HJIGRs0/1SbTSSvmmfRbu5AM5IVDIIGdt0v1QbjaRv2mfRbi6AMxKVDELGNt0v1UYj6Zv2WbSbC+CMRCWDkLFN2KXT+4I9Drdardaa+0j6BmBhJ1oO/1Q0Fh9sIGzB8fK75XL5qFTLtUzLM8Qd2HWU0jYLiLhavFPiAE6bO5NVLYd/KbBAiKvGC2ATlulFewV8TGiz2Tzd3Nx8Tk9MdWX1eAGsOg/5xXoHPCVWCHETeAGcb071CgD/idMZcTN4AazKMb8YgF8ze35+fjj8Kuef/BSzrmgKL4Czeq+/GMDvMzVG3BxeAOubzKoI4L/jMkLcJF4AZ3HTXwzg05kqI24WL4D1TWZVBPD5uA7ZfDv8631WoH8vbhovgIXTIb0cwJcTFCJuHi+ApQKF1wP4eoAzEXeBF8DX58d0BYDT4s1E3A1eAKfNj9kqAKdHm4i4K7wATp8fk5UAzot1Qjy92ePM+6e7wwvgvPlRXw3g/EjPIO4SL4Dz50f1CgDPi/MD4m7xAnje/KhdBeD5Ub68Jv5frZ+kMf+Rv7+y5RniEzm0poQ6YRMAcMHWSMIveOyzW08fDLff7+/W67XLB8R5ZbDdbr8Mw/DTaz+vffhQO2HSrQGe4mgNcat4p14BGMAnE2gFcct4ASzEK/0JosL2piVqR9w6XgArjH+LT6E/xrLb7da1vSbuAS+AAZycQE2Ie8EL4OTxPb+whzvwm0cf/g0XPeEFMICzExjH8etqtfqRfaHDBb3hBbDCUHV2B/6dWETEPeIFMIBnJxAJca94ATx7fF8v7PEO/Ca2+8MbCb4rxDi7RM94ATx7bAAcAXHveAEMYIUEfpdwvxNvNpvpQwEetB5ArXV4K6Wwc50/hX6bnhti8L7GDmAACxN4d7k5YvC+bxeANce3olqGX9BthtgC7/R+79Vqta6odVUdNfwf9FeV5ofDWiI+vPXyv5rvnwZvnZMGYOO+1YAYvMZDYFgewIbhHktHRgxehwEw3ALAhuF+LL3ZbJ7OfF6z5BT3c59Og1cSe4xrAezcByPEj7vd7mvOa2LwOjfeaDsAGwV7qWxpxOAt0HSjLQFsFOy1sqUQg/daZ+r6dwAX7Nfz8/PD9D1Gykc4+3TaAu8wDI/L5fJO+TFQLjEBACcGZbXMAvGpD8sDr1UHy9YFcNn8f+9ujRi8AZpsdAQAGwWbW9YK8eHXVtPH89znnufKep42Kwc6txyA5yZncF3iF3Qb7JxVErxZcdkuBrBtvtnVgyMGb3ZHbS8AsG2+s6oHRQzeWd20vQjAtvnOrh4MMXhnd9L2QgDb5iuqHgQxeEVdtL0YwLb5iqsXRgxecQdtCwDYNl+V6oUQg1ele7ZFAGybr1p1Z8TgVeucbSEA2+arWn1CPL132uBvit+eE7yqXbMtBmDbfNWrGyMGr3rHbAsC2DZfk+pGiMFr0i3bogC2zdesujJi8Jp1yrYwgG3zNa0+/ZXR4dtIvwlfE4PXtEu2xQFsm6959ekLyMZxfJiDePpLpU+fPn01PyQbmCUAYLNo/QrPQQxev/5Y7gRgy3Qda+cgBq9jY4y3ArBxwJ7lUxCD17Mj9nsB2D5j1x0ufQsEeF1b4bIZgF1i9t3kFGLw+vbAazcAeyXtvM9bxOB1Dt9xOwA7hu291YR4sVj85/Al1d+992Y/nwQA7JMzu5CASQIANomVoiTgkwCAfXJmFxIwSQDAJrFSlAR8EgCwT87sQgImCQDYJFaKkoBPAgD2yZldSMAkgX8BXH/mtN7kI6wAAAAASUVORK5CYII=;" parent="1" vertex="1">
          <mxGeometry x="370" y="630" width="100" height="100" as="geometry" />
        </mxCell>
        <mxCell id="uFK_l24jNaTMNd1LNEe2-4" value="" style="endArrow=async;dashed=1;html=1;rounded=0;entryX=0;entryY=0.25;entryDx=0;entryDy=0;exitX=1;exitY=0;exitDx=0;exitDy=0;strokeWidth=4;endFill=1;dashPattern=1 2;startFill=0;" parent="1" source="uFK_l24jNaTMNd1LNEe2-3" target="uFK_l24jNaTMNd1LNEe2-5" edge="1">
          <mxGeometry width="50" height="50" relative="1" as="geometry">
            <mxPoint x="480" y="680" as="sourcePoint" />
            <mxPoint x="720" y="520" as="targetPoint" />
          </mxGeometry>
        </mxCell>
        <mxCell id="uFK_l24jNaTMNd1LNEe2-5" value="" style="shape=image;verticalLabelPosition=bottom;labelBackgroundColor=default;verticalAlign=top;aspect=fixed;imageAspect=0;image=data:image/png,iVBORw0KGgoAAAANSUhEUgAAAPAAAADwCAYAAAA+VemSAAAAAXNSR0IArs4c6QAAEvlJREFUeF7tnQ1S3DgThu2F3ILhg5NsOMmGk0BOQr6TQE4y2RluEahZi9iJMf5RSy11t/RStbVbO7Lcerpfd0uW7bbBHwiAgFkCrVnLYTgIgEADASMIQMAwAQjYsPNgOghAwIgBEDBMAAI27DyYDgIQMGIABAwTgIANOw+mgwAEjBgAAcMEIGDDzoPpIAABIwZIBJ6fnx8uLi5uSQehcTICEHAytOV1fDwe75qm+bzb7W7KG53NEUHANv0mYnUn4NPpdPpxeXl5LWIATvqBAASMoPAi4ErnTrxfXOOXl5fr6+vrH14HolFSAhBwUrxldL7f76/Oz8/3o9Hc7Ha7pzJGZ3sUELBt/2Wx/ng8Prq57+hk97vd7muWk+MkqwQgYATIKoHj8eiE6wQ8/nvCQpaOwIGAdfhBrRUz2dfZCgEr8RgErMQRGs04HA5f2rZ9mNqGlWg93oKA9fhCnSWHw2Hftu3VnGFYidbhLghYhx/UWdFv2rhfMQwr0Qq8BgErcIJGE9ymjQ27sBKtwHEQsAInaDNhvGljxTYsZClwHASswAmaTFi4bTRnIgSswHEQsAInaDJh4bbRBxOxEq3DaxCwDj+osIKQfQd7sZAl7DkIWNgBmk7vm31HNkPAwg6EgIUdoOX0S5s2sBKtxUPzdlQnYFcm4kmaj8GwtmkDK9F6RVyjgO/cc61t295CyL8C02PTxmwEYyFLXtg1Cvjt6RoXfN02wW+1PxY386yvd1RCwN6okjWsTsDTgHVB+Pr6elPrGyY8N22sBSAWspLJc7vj6gTcl4zvHlCvNRsH3DaaiygIeFtnyVrUKmD3dsW5jfpV7e8NuG00F4hVMUumxMCOaxXw3Fsm3hDWUlIzZV+HDFsqA8XHcViVAt5auKmhpGbKvm8XPLxmlkOKYX1UKeC5efAcvlKzceCmDdxKCtNY0qOqFbBvEJeYjT2e9aUGHRayqMSY2lcr4K0yeoZvEYs1oZs2NuINAmYSJLWbagXsW0aPgVovqQMuWr7xVMTFzXewmtpVLeCQTQyWS2quhauZAMZKtJCqqxZwzK0Ua9k4ZqxbsYmV6C1C6X6vWsCxJaWlbJww++JWUjp9bvZctYBD5sELRFXPAX1X3DejZb0BFrIiAYYcDgH/+mj12vuPvbhqLqkDn/X1GveoEQRMJcbQHgKe/3hXEFqNJXWm7Ot4qa5Cghxq4KDqBRw7D17w8dPLy8uthkcUE2zaWAprrEQLCL56ATPOg9+5T0M2DrlNFhqDWIkOJRd3HATcNE3iMlOktExUWSxGGwQcJ8TQoyHgpmlSB7vEAlfK20YrwYaFrFAlBh4HAffgUgd8zpI65aaNjTiDgAOFGHoYBJxJwCMHJV/gSn0xWgk2kelCaPCXcBwE/EfAi2/p4HZ0ymyceD6/hQIr0VuEmH+HgHugqefBC35jz1iZNm3MDgcLWczq9OgOAh5Bkig9ORe4hLNvlXui+wv/ldRHAiDg9wJm2VbpceFMcs+YY9NGX95fUccwal/0QtYg2O7jAH93Y37bgvvy8nIttWkHAn4v4Gzz4AWBBC9wcW3aOJ1Ot23bPkDAfwj0ov2newOniw/3z/hP9IIFAY9cITQPjs7GXHa7T81cXFzcRs6j2ef1EReToENHgnXHrz3oIr5oBwFPXCwxD45d4OKyuftO1Fs8RPYnHtQhqt3Ish+61LJgBwF/FLDIPHgu6HwWuLg2bbjS+fLy8lsv4GAGWgJ7S8SDYLuq48p9rXKr/czvoqXzYA8EPPEMVzkaEBCzh2zdM47MlsM532XNmIuCZgH34/rbCdYJN8JHaqYJEPCMFyPngBFxsXrohwUuxttG77IJw0VMRXailsWejlM1RYCAZ7zGlNU848G/mctuTdN8HUpdjgvNsHA1tSLylpSIgOdu8fjT9W4pMrYl6yDgeQFL307aiqZhZTT6VUBL9zAjL2LZSsxEWXaJf7ZxbQUA5sArhBhKSF/+0u0WAzLyvnKyMpNwi4ebbbIxxRiKDLxALzIDuV5ddozOkDHOXTt2a7Ep5hMsW31Tx5Q5y86aJ7nbao0XBLws4OBbKX2XN+7fp9PpIXLFkxrvvu1X53KSK9EMt3h8Gfi2UzXvHRsNAS8LOHYe/FaeumD89OnTXeC9Rt8Ao7bbLAcZphGkoGe8xUNlsdV+k9VWByl/h4AX6DIE8G/Hj0pALSW1l7giV7lXz6GhLN4SFvdUYOt8Ib9DwCvUYubBc853QXt2dvYoWVIv3TaawxAzfjf/dxXI0G+mWzwhGlg7xutCx31SSn8Q8LqAo+fB0+dEpbPxsN/ZJ0hiFrK6p3beNp6cn58vPcXjY4JkG3W3jOZgQMArIcJQRi8GQaQ4ggJ7vN/Zp4OYhSyf/rW2sVA6D+wg4I0oipwHri6AZC6pyYsxDBcwrRrdskt96QwBb7mw/z1mHuhzJc9YUgcFZeSWSk/KqpqZKJ0hYM+YYSgjvYSTsqSmLFxNscRcwDwRa2pGrlKkjUcJveEBhjLS+4qeqqSO2UUUuaVSOr5J54/hRDoRY2MI2ANmTBbyKaPHJiQoqb0vIHMoUlYGHuhzNvGqlHIa5HMuCNiDUmwQU27dDOa40j12Gyb14rEg4NgdaR6ExZuYK50xBybETK558NQkhm2Y0VmFYQpBIJ2/KcdFLr/Vf86IDOxBPzaIYxaRnHmBFQBbVom8leZBWLRJ9EVO0noI2JN+znnwnEnUBS7OBZmYsXvilWoWtT4gZfT4vBCwpxcCs+C49+grPWGBizUwGcbuSXm+Wf9iP/c6oSeGF9K9ncR66Yw5MDGkYsvo7nRsotoSVMii2RoOhjUAb9r9e78aN+1omub7eC85sx3RF1TvQSVsiAxMgBu5K4ltTupMXimp2QOT4eK1SHl4bW7f4J1gpwdF8h93x3YxJYRPkqYQMAFrzFwwRck2U1KzXiTGaDjEMy6Fp9l1yw0x7Cd9J2O0NYYUv0PABKoMJRx7dnTmj0rqJP3353ic+bDXamZ1P7pSuHsK6t/hVbgE3L+bMnD/3Rfn4l7IWLiPgYAJRBlKSbOl29aWSkopTED+1pQj+/fnTHaBo46Jqz0ETCDZC9h9enP6iUnfXsyWb+OFs5hS2BfU0A6l8zoxCHiGjxOq+99nZ2efu2/l/m/hu7DUWDR966JfNPscUwpTgXGVzinWH6hjSdW+agGnEuqGs4or41IEJ8N0ZWxWscyrEfCQQTgzamDgmp0HB4436DDG0rlo3sUJeCrU0+l0JfkWyGn0llzOBSl15iCury7WwNqsgLULdS2YuXdKcQlHQz8onWleUC/gsVD7r6m7BabQVWAanXSti52TxSJD6UwjqEbAhQp11huxjxfSXGynNVfp7B562O12b9+mKv0vu4DHb+gvKKOS4qSGuRkJSL+3u3sJ/J563Fz70nZbrTFJJmAIdTMUUUaPEDGWzlVxjRbw5Js3ziVufmp9jrqpPoYGRd/eoPBB6Uyh9b5tlIAJD5iHW1jukdXM09ZcyLXqXOu0JErAg2Mg5KCrDAT860EF0lNOK6SrKp0HDiwCngg5ZrN/kBI0HzTZ+O9MXX1oXfNYuG3jKp1rXtVnFfDgYOeY7rVDd5p2QHEH37S/yatgINQN4CideSIyiYCdaSWX1U6sf/31l3vBmnvR2veXl5cf19fX7r/x50kApbMnqI1myQRcwvwY5S9PkE174Sqdu36rX8lPLmAr8+NpVh2/DTFNGNfZK1fpXNNuq7VIySZgLfPjyTuG/23b9gfEmu9iwlg633c7rv5f+9Qlu4Al58fDe5u6p4G+5gtZnGl88e6ex3Z3KVj+4M+mERGw9PwYjmfRD6kTxtL5w3n7xcSvOV/3Qxp8wsaiApaeHzvHv76+3tRehiWMr99dM5bOi+bW6E8VAh6X1VzfvvENSmRjX1Lh7Rje5ul98tr8qUbAKKu9Y9Rsw61vOnEOrBYhqxPwWMifPn26cxmZ07FbffWOv8XK9BapsN9zb/Ap3Z9qBTwW8tnZ2WPObZm1XL3DJMhzVO7ttm6/9M+fP7+Wtt6hXsDj+XH33/c84ePXC4Tsxym0lVA2/lbSbUQTAlYyP0ZZHarUjeNyZ+OSLsymBCx522lwOnb/pFFx7mzsRlHC/NikgIcQyn3lHjm9qDIsjSTDel35cHlYhx5HWZ4fmxawgvkxymoPgVCbCGZjcxdm8wKWnh+7hTWU1VSJ+rWXyMbW5sfFCFjD/Lik1U0/iaVvJZGNLc2PixOwgvkxyuoEupbIxm4Y2ufHxQpYcn6s3ekJ9JWlS+FsrHJ+XLSAJefH1uZSWRTIdJKcD0eMTdbo0yoErGB+jLKaSbySF+Xh3JruH1cl4MEB7qmY3I8toqxmVnDfnXQ2lr4DUaWAR/Nj963hbH94/Ww61MfjUeR7XNI+rVbA6UIJPYNAPgIQcD7WOBMIsBOAgNmRokMQyEcAAs7HGmcCAXYCEDA7UnQIAvkIQMD5WONMIMBOAAJmR4oOQSAfAQg4H2ucCQTYCUDA7EjRIQjkIwAB52ONM4EAOwEImB0pOgSBfAQg4HyscSYQYCcAAbMjRYcgkI8ABJyPNc4EAuwEzAh49DqV4bExkcfH2D2ADsUJ9B8Id++/+tE0zVPTNN+tfNxOtYCl3oEkHlEwQJyAxtfnzEFRK+Cc35IVjxYYoJaAdiGrE7DUK1LURhAMU0HACfn19fVG2+dJVQm4F+9ehcdgBAhMCGgUsRoB9+80ekTUgIBmApreSOk4qRAwMq/mkIVtUwKaMrEKAR+PR5d5cVsIWjFDwIn48vLyWtpgcQFjtVk6BHD+CAL30h+00yDgUwRAHAoCYgQ0ZGFRAT8/Pz+4LySIeQAnBoFIAu6LGxcXF7eR3QQfLirgw+Gw7wBk/TpCMCkcCAIzBKSzsJiAD4fDl7ZtHxAVIFAAgRupvdNiAkb5XEDYYggDAbHFLDEB49YRor8gAk+73e5GYjxiAo6Z/3ZL92J2SzgJ58xDoLulGXRHRHIeLCYECDhPUOIs/gQgYH9WTSgsdwpkYAJoNPUmYDEmxTKwRVjekYCGJglYjEkI2GSowegUBCBgAlWLsAjDQ1ODBCzGJDKwwUCDyWkIQMAErhZhEYaHpgYJWIxJZGCDgQaT0xCAgAlcLcIiDA9NDRKwGJPIwAYDDSanIQABE7hahEUYHpoaJGAxJpGBDQYaTE5DAAImcLUIizA8NDVIwGJMIgMbDDSYnIYABEzgahEWYXhoapCAxZhEBjYYaDA5DQEImMDVIizC8NDUIAGLMYkMbDDQYHIaAhAwgatFWIThoalBAhZjEhnYYKDB5DQEIGACV4uwCMNDU4MELMYkMrDBQIPJaQhAwASuFmERhoemBglYjElkYIOBBpPTEICACVwtwiIMD00NErAYk8jABgMNJqchAAETuFqERRgemhokYDEmkYENBhpMTkMAAiZwtQiLMDw0NUjAYkwiAxsMNJichgAETOBqERZheGhqkIDFmEQGNhhoMDkNAQiYwNUiLMLw0NQgAYsxiQxsMNBgchoCEDCBq0VYhOGhqUECFmMSGdhgoMHkNAQgYAJXi7AIw0NTgwQsxiQysMFAg8lpCEDABK4WYRGGh6YGCViMSWRgg4EGk9MQgIAJXC3CIgwPTQ0SsBiTyMAGAw0mpyEAARO4WoRFGB6aGiRgMSaRgQ0GGkxOQwACJnC1CIswPDQ1SMBiTCIDGww0mJyGAARM4GoRFmF4aGqQgMWYFMvAh8Nh37btVYifd7udmN0h9uIYGwQgYIKfjsfjY9M0nwmH/G4KAYdQwzFbBCIE/LTb7W62+k/xu1gmixFwChDoEwRCCXSV5LeLi4vb0ONjjpMU8F1n+H2M8TgWBDQQqFXArnx2ZTT+QMA6gZvdbvckMQixDOwGGzHnkGCFc4LALAHJNRlRAT8/Pz+cTqcviAsQsEpAsnx2zEQFvN/vr87Pz/dWnQe7QUAy+4oL2BlwOBy+tG37gFAAAYME7jsBf5W0WzQDu4H3WdgJOOiesCQ8nLtqAmL3fsfUxQU8iPjs7OwxdGdW1WGEwWcn0K3b/Li8vLzOfuKZE6oQ8CgTYz6sISpgwxYBsdtGU8PUCBiZeCtm8Ls0AZd527a9lbrnOzd+VQKGiKVDFOdfIqCpbFY3B55C6xe2/un+P7ZaQlOiBPqs+016tXkJgroMPDYUQhaN3apPrl24g3NUC3hBzG+3m06n0xVWravWGNvgnVhdZ23bun+7Pc3fNc1z1wZqRsBs3kJHIFAQAQi4IGdiKPURgIDr8zlGXBABCLggZ2Io9RGAgOvzOUZcEAEIuCBnYij1EYCA6/M5RlwQAQi4IGdiKPURgIDr8zlGXBABCLggZ2Io9RGAgOvzOUZcEAEIuCBnYij1EYCA6/M5RlwQAQi4IGdiKPURgIDr8zlGXBABCLggZ2Io9RGAgOvzOUZcEAEIuCBnYij1EYCA6/M5RlwQAQi4IGdiKPUR+A97sxuH0cegrwAAAABJRU5ErkJggg==;rotation=-90;clipPath=inset(0% 6.67% 45% 0%);" parent="1" vertex="1">
          <mxGeometry x="630" y="350" width="100" height="58.92857142857142" as="geometry" />
        </mxCell>
        <mxCell id="uFK_l24jNaTMNd1LNEe2-6" value="" style="endArrow=none;html=1;rounded=0;strokeWidth=5;" parent="1" edge="1">
          <mxGeometry width="50" height="50" relative="1" as="geometry">
            <mxPoint x="120" y="960" as="sourcePoint" />
            <mxPoint x="880" y="800" as="targetPoint" />
            <Array as="points">
              <mxPoint x="120" y="240" />
              <mxPoint x="880" y="240" />
            </Array>
          </mxGeometry>
        </mxCell>
        <mxCell id="uFK_l24jNaTMNd1LNEe2-7" value="" style="shape=image;verticalLabelPosition=bottom;labelBackgroundColor=default;verticalAlign=top;aspect=fixed;imageAspect=0;image=data:image/png,iVBORw0KGgoAAAANSUhEUgAAAPAAAADwCAYAAAA+VemSAAAAAXNSR0IArs4c6QAAFr9JREFUeF7tnQ1a2zgQhuOQvUWTLSdpOUmXk7ScBHqSwknKlt5iA95MalGRJrGs+dFI/nieXaDYkvxpXs1oJDndAl9QAApUq0BXbcvRcCgABRYAGEYABSpWAABX3HloOhQAwLABKFCxAgC44s5D06EAAIYNQIGKFQDAFXcemg4FADBsAApUrAAArrjz0HQoAIBhA1CgYgUAcMWdh6ZDAQAMG4ACFSsAgCvuPDQdCgBg2AAUqFgBAFxx56HpUAAAwwagQMUKAOCKOw9NhwIAGDYABSpWAABX3HloOhQAwBXZwPfv39+vVqv3i8XiAzW76zr6edH3/f57/HP42/Bvj+HvXdftfw7fw7+/vLw8hH9fr9f3Fcky66YCYGfdfwjpYrH4SIDGQFo0ue/7R4Kc/iO46ft2u328vLx8HQws2oE6zisAgAtbyADsJwJ1+K9wi85XT2Avl8v7ADW8ddnuAsDG+kfAUs1fjKsXrw5Ai0s6qUAAPEmuvIsjaKsHdkyBAHTf91/hncfU4v8dAPM1PFrCnKA9JeEwj75bLBYPgFnH0ACwoK4B2p3h/mOddBJ8DJWiAszr9fpGpYKZFgqABTr+6enpY9d1nwhcgeKaLiKeM282G/LO+GIoAIAZ4j09PX2Gt80XEF45X7twJwDO0JDAbSGDnPHoKrcA5HxZAfAE7QDuBLEyLgXI00UDwCOaIZs83ai4dwDkdAUB8Bmt4HHTDUnjSoA8rioAPqLR4HVva9jaON7F9V8xgHyNteQ/+xIAR5ogXHYP+5ftdvsVByp+9xMAHrSoIVwmT0TNpcME9HPf9//S7/HRQDoxRP8WGzkNTKHLh+OI+1/jY4jL5fLD8DsdqnD7hbD6bdfMHmCP4XK0n3gPKQFqGT4G4C8uLvYwE9wvLy+0WeV1IChNOMLqXz0wa4C9eN1oz/DC81ZDApug9uKt4Y1nCnBpr1sLsGNe9gDoYttISc/n5+erOc6NZ+eBad/y7pU038aMU+PvuxD0jg7Ct7gHuDTMc/XGswK4RMg8R8MKMNMBjwJLcV88T0OkHcMsALYOmecI7SnDLLE0N6eQunmALUNmgHvav1iflZ5LXzQN8I8fP+hgPe2oUv2ai7FIiBjC690y9GftZak59EuzAFvMd+dgIBLQHivDEuRd/c3Oi5sE+OfPn7cGb8do1ii0oD0F8mq1omSX9gv/muyv5gB+enqiJSLN7YD32+32eo5rjppgWyS7aBnv3bt315rPYV12UwBrwoutezamSUnHvu9vtebH1I+bzebS5mn0a2kCYINloibDL33zyqtB2xu3tMxUPcCa8MLr5gEoddeQ6Pqm4Y1bgbh6gBXD5vv1en0lZYwoJ08BTW/cQjhdNcCK8CJkzuNN7S6tZcHaIa4WYA14ETKr8SdSsFZIXXN2ukqANeDdLT0hZBbBTLcQrZC6VoirA1gplELIrMudeOmwg1+SVgWwxt7m3Strrls8nytOjMMCAXFFACudKrqyfNeUQwaqb5L0oD68OPCmlkG9Cg88zHu+C1sb4BUWtFRx0vZR0xpxFQBLJq2QaS6FmW690hnqWpaX3AMsOc8BvLoQlS5dGuLd87hPbroGWHLeC3hL42VTvwLErqdabgGWntcsFgvXHWFj3vOoRdJ2vM+H3QIsOe8FvPMAN35KaYi9HkF0CbDkvBfwzg/e8MTCS0wu58PuABae92KTxnz53T+5lDPwmkPxCLDUK3Fcjpgz56nI40tC7C2UdgWwYMiDgwlFUPFbqdSLDr1tvXUF8G6k7LkmUMsCPPc5cf80BaSWl7xlpd0ALDVCImk1zbDndLVUZtrT0UMXAAsmrrDWOyciM55VcJrmwta8ACyRuMK8N8Og53iLRLTnZapWHGCJEdGLmHOEocZnlpoPe9grXRxgicQV5r01YlS2zRLzYQ+OoyjAQutzWO8ty0K1tUtEf6UTWkUB/vHjx3fOS7s9jIDVWi8avpD4UIDSNlgMYInRD6EzKOQqILECUnJzR0mAWd4Xr4Hlmi7uDwpwT76V9MJFAJbwvtvt9tLqIz7Dh1Frvehs8AKLWl6w15oeQgmtIgdnSgHM9b6miatohBavN4Rw3rbonfPPmnqEwd1aD65TKeWFzQGuTagj4ZXYhpHD+Ze10eYE0Uf0EBvUDlclLPUQSmiZe+ESALO8r2XC4NSOHQnDOpU8KTWSp8B8ZgcTG+JT81BLPbgJLcu2hv4yBbgm7zvWVg7EY4ZSem3xGMxjeuTuSkrxfFZ6pLQlYaAz3SNtCjB3D6qV9x0DLHRiDsSpZecCkWBgky/RavNEYNhePuXBEwaqsWLEplhjFdHfTQHmbptcr9fq7Z2akZzyqpUJIIS+MzHac4YyRY9Bi7tdP92MGd+UcqOy1PXg7pO2DqPVgQjic0c2C++baVSLFMPNgDeUe11qeSlHDy0tyI6mDJZjA8i5v9dgq+ZzYO5iuYX35bTxnOHmwMsJ0znGG9+bq8c5LQTgeHx+fr7S3AOQM3DFull6YRMPzDHgQRj10IlrWKfCPIFnJ89jvjzB1eMYxEKHV0z04D6/1TZfE4C5ySurXVcCnfZm7lorvILTnkfKINOcmGsDUURiMphxvbBV5twEYM6pIyshpIw28sT3u/3aHznhbAnPe9he7qBGnnifLe269xwthjmwCbyhnblTiDBft3gFrTrAAgZg2mkkPrfNXEMtYayaSZ1a9RCwA/U1YXWAuaGTRfLqmIEJdF623XrwvNKeOFuMX9ln80Gc2ssNoy1OzKkDXFP47MFoSxlrCmAlBrXSengPo9UB5mzeKN151uG0h+cdA1kqkzxWj5dphEAiUjWMVgWYO2KXCp9LeOIa4I2SO593P39JgTD3Gi96CITRqkugqgBz5r/W2ecxQ+MORufK92KsYxrEf9f0xN704Nix9jxYFWDO/NdbJ2qF0x6fMxVkDYg96sEJo7V3ZakCzJn/Wm3eSDXWcJ2kJ/ZorFP1kITYqx4CYbTaPFgNYK6he5n/HjNoIaM1PXY2Fcwp13MytVE9rvVgPqPaPFgNYM68wdv892DuR7ur6LOcJL7UOlaicSllcAfqgzrc6sGxZ815sBrArc1/ydA4c6EzMLg12jGAheEN1bnUg9P3mvNgNYBbm/9yOnAMBFqSSTkEn1CO2SVK8LqFmDsP1srpqADM7Vxv819leN0a7anRgNu/iaOMu0GNE1VqHS90B7C3+a8RvNVAbASvSz08JrJUAGZO+N2MvMbwujRaxQReoiP2M71grj6o2LU7gL2sBRaC1y3E0IOdxFRZJlMBmDNX0Jrspw73itnmKU2ga1VG7KmNgB6/FeMksrQy0SoAczLQpRNYUp5meCcU9y0UxSGW0IPyGjs9/skZPDytE3MApufQsG1xgD0+ZKrhSBgr1RUScUIJn2IQC+lxtd1uH1er1SeKKlL7wuu6OSe61MhEiwPMNFqVeUKK0QgZ6x+hL1OPfdNL5AWE9HizB5iZBHrtxhJ6hMqZmWjxPdHiAHM6qeQS0sSP+Tg6JpwyLAGIxTt+bFAT0ONomzn2EbXZXI9Qt7cVFlcAl07cMD9W46xRMSAuZqwMPc62mTnNKqbHkNDjvMxAfDokDjBnhCoZGoURNtO4kowqA+Kkcse8KefvGXoktTlzcEgqm/O8Y/dm9OFrkRoRJgA+0mOp87+cz+qZYADio/WYcZ76+wQ9Jr09ciLELvSY0H9/yNk8wBpZulyjHeuonI8WDW0ZK1vz+JmiHpPgPYh4bkdegl8suXmoV+pgdkJn8ecQ98DesnS5Bjsy32F3xBmI2WVznvncvacSUNypzxCmn1pmcqUHAD5jIR52YcXNO2FYYgZ1CLHWbh0poI/pwYU3btvhAOFRj+YB5ix0ewOYjCteTtGYwxxAXDxJMwZ7rIckvKHeA4jd6ZGR1HuVVGNAEg+hWwM4gviT1qH7AeLHUh/kPQbt4d+H5NPHzWZzN/XelOs96wGAKwqhU4wN18xLgeYBrvkgw7xMEU+bq4AnGxcPoT09XG4H4T4oMJKN73MVkj6RJA5wi3Pg3M7CfW0q4MlJAeA2bQxPpaRA83NgeGAly0GxLhRoHuCWdmK5sBg0wpUCzW/kAMCu7A2NEVYAAJ8X1N3OG+H+R3GVK8ABWGMnn3gSq/bzwJXbF5qvrEDCSbKTLQDAyp2D4qHAmALNA8x855GLQ9tjnYi/z1cBb/YtHkIzH1DsqN58TQxPrqkAZ4q4a5e4g9IAmPMB2ABY0/pQNlsBzj4HjeOX4gB7W+hm9xgKgAKRAhyANc67uwKYdJLe7A3rgwKSCnjaB03PJQ4wFcoZpTy92E6y41FW/Qpw1oA13sahBjB2Y5U1VprGUAtWq9X+O3020eXl5WPZVtVfu7clJE2AXb29vn7TefsE4ZU2Xdf9HV7H2vf9+91GgdFPQyRPsO/4rnv9/vLy8kC/1/JKn1L9yVlh0djE4RVgZKIPLDR6GyRl+Ok/la/hRfUE9v1uKvMAoN/KzFlC0shAawKcvZSkNVdQsXjFQgnav/7667PQ5+pmt3Tw2DdaL7DLbliBGzm5naoA5iwlDf0yy0MNIy84L2Cyv6skkJfL5X3f91/n6pk5GWiNJSQ1D0wFcx52bploSo4sl8sPpb1t6ggxhNp3Wq/ZTW2H5XWcBBa1U2t5VGUZaQD4G2O+Not5MC1L9H1/m5J8sjTW1LrmBDJn/quVwFL1wJwRq/V5sMCHZ6cyZnLdHObJHue/qgBz58FacwYTiz5Riec5rpAu99vt9rrFNWfOlFDTltVCaDIIzqjV2jyYs4YoBJdJMS2G1ZxoUnP+q+qBufNgzXmDiSUPlbQWLqdql/Ph56llW1/ndf6rDjBn5GphHsydRlgbqnR9rXhjTvistf4b+ko1hBYw4GrXgzmDlzRIDsoTP8hu9UzcftSc/6p7YG4YTVv61uv1lVVnSdXDCbmk2uCtHPLGz8/PV7UluLh9qbX+a+KBuQDXFkbPdb6bOljUGFJzwmeLPI5qCD0AnL0vmu7XnkOkGt/YdQLThbEqmvh7TRBzw2eLlRR1gAW8kvswWuAZm4Az9SFqgZh5rl1t+2SsszrAgxfOPh/sPYwGvKnYvr2uhmUm7+GzSRKLKuGGlxZziTwz3B/a4Oz5zq22ifs8Q8zdeKOdfTZLYoWKOIbu1QtznqkJAgUewmt2muN9LVdPTEJo6mduQsBbMgvwCtA7FOEN4pps1QxgbhjtyQtzwys502+nJE/9y9zDTy8RvLRa7zYDmLsm7GVJifNq0XZwU3uS4ju2uN7XOl9jDTB3Tfhxs9lcqplPQsHc0Tmhitle4iGpxe1f66meKcBCSy7F9kdj3qs/tpQMpbnet0TbTQEWSmYV8cIInfXhjWooEkpzB2hr72u2Dhx3/fBS8m/M90CZdjA3AWdq+g1UViKUlkhMah9cONa15h5YygtbnmzhjswNMGX+CJbhqMQAXcL7FvHAVKmQFzbZI43Q2Zzd1wqtoJAYoEt432IAS3jhoZfVE1oSnVsOgbprtvDCEgO01UDjJoQOXni1Wn3nmJh2B0t0Luf5cO9eAdVBmrtsRA0s5X2LemBBL6yW0IL3LT+EaA7SEomrnUJq9peifpEkVmiYUPLgseu6a+nP64H3TTEfs2vEvbBU/5b0vsU9sJQX1hil4X3N4EypSDxhKdG/Jee+QbSiHjiaC98yPkdp/yySe1ClRucUy8Q1yQqIeWEJeC2PDJ5TqDjAUgmt4SGLzkeSTREXFlOAu10yarjYgMIRwwXA9ADc13dSGSV28HDEx722CkhFVpLRHlcBNwBLJLQCxKVPLHE7BffrKCAUOhddNjpUxg3AUgkt6fmwjimhVGsFpOD1kLiKtXMFMDVMSuhdWZgPW1PitD6h9V56OvFsOFcydwBLhdJIanFNo437BZNWJIiLxJVrDzx44ez3SMcPV8sLxNtAxd9TSCWtPDsDdx6YxBJ6c8ded2Sm/YFl0SJheN2FzkFDlwAHiC8uLrgH/wGxBS3O6hCG1/Qtk1OldAvwEEqzXoJ3GE5bvgRgakfgehkFhHMoLue97ufAcQMFM4j7cBoQy4DisRQFeN2vZLj2wNLz4TAnBsQe8eO1STps9rhkdEwh9wBLz4cDxLvzDzebzeaOZza424MCCvC6nvdWFUKHxgqv54Xs9N3uPOeNByNEG/IU0IDX43rvKXWq8MCh8ZLz4eCJaWM6IM6Dp/Rd0oP6YBPXNUVmVQE8ZKZFNnkcGJ/7ZEVpWLzVLz2YD89XnR1UBzAg9oaSfXsE98vHjXe7WeOcwlUCPCwXfNo92BdJ88Eyk6Sa8mUJvU/8WMOqhJcepEqAQ2Z6tVqxX8Vz2JvYPy0PnkSJGvPdoV3Vwls1wAFiqe2WR4ysuvmQBCgey1AKmfcrEbW//KFaDxwMTTGsws6twjRr923t8Fbvga0gxlKTPclKWeb9g7TgeUOPVO+BY4g15sShfOp07N7SB5k2ZvR9f8v8+NlzDa16znv4YM0AHCW2xLPTsWjkjf/777+by8tLAhpfQgpIngE/06Sm4G0mhI47TGuJKa4DmWohaodiNMPl11Cz6+7evXt3Ldvy8qU15YFjOS2MAmE1z4Cpj3Ya/qMYLocGNrui0CzA1HMWEIekCBJd6TAbgksJq6r2Nqer+OvKpgEeINZOirxqjtD6tPlZTG2OTHPEP7VyKmDa1zcPcJTcEt+1dapzAPJvZazBHWpuLll1ytZmAXAEsWqG+lDkAeTHvu+/1nREjes1ImjpnWb0n+VXs/PdYyLOBuDw8AbrjEeNlWBeLpf3Ly8vD63CTNp2XfeJElOWxEZ5iOZD5kNdZwdwiZD6mGduAeZhqyNB+/fuGUVPhk0cAGYTMgPgQYFCc7NR79x13eN6vb6faMAml0eaUXbXYvkn5blmFTID4AMFjHYApRji6zVxuE3/aA01aUL1XlxcBO9Kv5b0sH/oh0/c+CXJLEPoYzRZrRlPIvng4pAUI6Dp590a578B8HDpdrvdb/GMt3oGIMM1q9VqD2jf9/vvFALTZorhd+uk0yRJkOF/KxcAjvTwFFZPsur5XDzrcPlYNwPgI6p4DKvnw+ifT4pw+XTvA+AT2sAblx8yEC6P9wEAHtEIII8bkfQVADddUQCcqFUA2dHySWLL67kM4E7vKwA8UTOAPFGwhMsBboJIJy4BwJnahV1Iu9WYzwbnWTNb6fs2gMvvHwDM1DCAvFwuP5TYA8xsfqnb7+d2wENLaAAsqGy0N5hOPbneECH42ElFwdsmyTT5IgA8WbK0GzBX/vX6VnpTyXa7/YqXAKbZzdSrAPBUxSZeP4D8fjhmR1sXm/bMAVra5tnqscmJJqB6OQBWlffPwlubM4eDF/QdntbYmHCYwV7wwxprAzocqNhFEvcAtrz9wAOX74M3LQghN50MGjLb+1NC1ktVMahDAx+8nlN21oWmzQHApnLnVxaf0aVSwhHAUGI4Ghi+D9eEY4OvnyJBRxHDPeHn4f3W9M8P9D+Amt9P1ncCYGvFUR8UEFQAAAuKiaKggLUCANhacdQHBQQVAMCCYqIoKGCtAAC2Vhz1QQFBBQCwoJgoCgpYKwCArRVHfVBAUAEALCgmioIC1goAYGvFUR8UEFQAAAuKiaKggLUCANhacdQHBQQVAMCCYqIoKGCtAAC2Vhz1QQFBBQCwoJgoCgpYKwCArRVHfVBAUAEALCgmioIC1goAYGvFUR8UEFQAAAuKiaKggLUCANhacdQHBQQVAMCCYqIoKGCtwP8GQsTS2hMZOgAAAABJRU5ErkJggg==;" parent="1" vertex="1">
          <mxGeometry x="710" y="320" width="101.07" height="101.07" as="geometry" />
        </mxCell>
        <mxCell id="uFK_l24jNaTMNd1LNEe2-25" value="3P" parent="0" />
        <mxCell id="uFK_l24jNaTMNd1LNEe2-22" value="" style="ellipse;whiteSpace=wrap;html=1;aspect=fixed;fillColor=none;dashed=1;dashPattern=12 12;strokeColor=light-dark(#000000,#FFFFFF);opacity=30;strokeWidth=3;" parent="uFK_l24jNaTMNd1LNEe2-25" vertex="1">
          <mxGeometry x="1570" y="340" width="160" height="160" as="geometry" />
        </mxCell>
        <mxCell id="uFK_l24jNaTMNd1LNEe2-23" value="" style="ellipse;whiteSpace=wrap;html=1;aspect=fixed;fillColor=none;dashed=1;dashPattern=8 8;strokeWidth=4;strokeColor=light-dark(#000000,#FFFFFF);opacity=50;" parent="uFK_l24jNaTMNd1LNEe2-25" vertex="1">
          <mxGeometry x="1600" y="370" width="100" height="100" as="geometry" />
        </mxCell>
        <mxCell id="uFK_l24jNaTMNd1LNEe2-19" value="" style="ellipse;whiteSpace=wrap;html=1;aspect=fixed;fillColor=none;dashed=1;dashPattern=12 12;strokeColor=light-dark(#000000,#FFFFFF);opacity=30;strokeWidth=3;" parent="uFK_l24jNaTMNd1LNEe2-25" vertex="1">
          <mxGeometry x="1185" y="410" width="210" height="210" as="geometry" />
        </mxCell>
        <mxCell id="uFK_l24jNaTMNd1LNEe2-20" value="" style="ellipse;whiteSpace=wrap;html=1;aspect=fixed;fillColor=none;dashed=1;dashPattern=8 8;strokeWidth=4;strokeColor=light-dark(#000000,#FFFFFF);opacity=60;" parent="uFK_l24jNaTMNd1LNEe2-25" vertex="1">
          <mxGeometry x="1225" y="450" width="130" height="130" as="geometry" />
        </mxCell>
        <mxCell id="uFK_l24jNaTMNd1LNEe2-13" value="" style="shape=image;verticalLabelPosition=bottom;labelBackgroundColor=default;verticalAlign=top;aspect=fixed;imageAspect=0;image=data:image/png,iVBORw0KGgoAAAANSUhEUgAAAPAAAADwCAYAAAA+VemSAAAAAXNSR0IArs4c6QAAEgdJREFUeF7tnQ1227gORqUk3UXtl6xkkpV0spKmK+l0JU1Xkr6ku5g6GjNPfuO6lgySAAnKN+f0zE/Bvw+4oQBRUt/xgwIo0KwCfbMzZ+IogAIdABMEKNCwAgDcsPOYOgoAMDGAAg0rAMANO4+powAAEwMo0LACANyw85g6CgAwMYACDSsAwA07j6mjAAATAyjQsAIA3LDzmDoKADAxgAINKwDADTuPqaMAABMDKNCwAgDcsPO0pv709HR9dXX1oe/762EY3v6M//49jNH3/ffw5/X19dtms3m8ubl5+//81FcAgOv7oNoMXl5ePnZddzv+Ec9jGIYA9F+r1eqTuBGGJgoAsImsvjt9eXm5HYbhc9hlc2Y6gny/Wq0ec/qhbboCAJyuXZMtf/z48XkL3p/Kk39gN1ZWVNgdAAuFat1szHM/x14uS9cdduPNZnNHfixVTMcOgHV0dN2LNby7xQNx+TAA4PKaFx/x5eXlq9XOe7iYAPF6vb4pvsgzHRCAF+74kvDupAwV6vfv398vXFoXywNgF26wmcTz8/Offd+HvLf4zzAM9+v1+q/iA5/ZgAC8YIc/Pz8/5d4qSpWHS+lU5eLaAXCcXs1Yj4c0HipPmNtLxg4AYGOBa3W/BXioNfZ+VZqClq0XANhW3yq918x9jyz4jpNadmEAwHbaVuvZ6LRV0nqoSCfJJm4EwGKp2jGsWbw6VIlilm3cALCtvlV695D/7i98e06aODOKBIQ1ErZmt94A/vnz5w1npG0iAoBtdK3W63ju+anaBI4PTCHLyCEAbCRsrW7Ds75d14Wzz55+ANjIGwBsJGytbj3uwFxC20UDANtpW6VnjwBTxLILBQC207Zaz96KWABsFwoAbKdttZ5rPEI4tVgOctiGAQDb6luld09HKXms0DYEANhW3yq9e8qDKWDZhgAA2+pbrXcnl9GPq9XqrpoIZzAwAC/UyU52Ye7/GscXABsLXLP7mrswxasyngfgMjpXGSXswpeXl19rvFaH3LeMywG4jM7VRql0Kc2lcyGPA3AhoWsOU/i2EvAWdDYAFxS75lAlXnLHPd/yHgbg8ppXG9H4SSV23gqeBeAKotccUvs7SXxitKY3uw6A6+pfbfSQF3dd9zG1Qh3A7bruE19fqObCt4EBuK7+VUcfbzPdXlxc/PH6+np7CuZxtw2fS/nGq2Kruu7/gwOwDz+4mMV4eX09DMP122/3vv/PtjD1377vw27bAa0LN/0yCQD25xNmhAJiBQBYLBWGKOBPAQD25xNmhAJiBQBYLBWGKOBPAQD25xNmhAJiBQBYLBWGKOBPAQD25xNmhAJiBQBYLBWGKOBPAQD25xNmhAJiBQBYLBWGKOBPAQD255OTM9qdYQ5HHbuuu907+vh2BHJ80KC7uLh4DP/9+vr6jYcOTsrapAEAN+K28Zzyhy2cf5566GBqSQHsAPUwDF8419yI409ME4Cd+zG8SSMH2qnlhbdGArJz5wumB8ACkUqb7Hbb7bgPBcZ+2H587FOBcRjCQAEANhA1tcsA7rt379523NQ+UtqFS+vNZnN3c3Pz9tggP+0oAMCVfaWR22osgVfjaKhYvg8ALq/524iFL5NFq2QnFsnkygiAC7uj1mWydJkB4vV6fSO1x66uAgBcQH8vl8nSpfJdI6lS9e0A2NAHHi+TI5bLe54jxKplCsAGylvduzWY6mSXXEqXVDt9LABO1+6Xlo3vtkdV4FJaKTgMuwHgTHG9F6VylsetpRz1yrQF4ESdl3CZLFk6l9ISlerZAHCE9ku8TBYun+OWQqFKmwGwQPElXyYLlv/2eGLf9/c8wSRRq6wNAE/o3dq92wJh87hare4KjMMQEQoA8IFYZ3yZfDJs+ID3SYmKGwDwKHnu5zaLe67CgJyVriD6iSHPGmB22/iA5N5wvGaWLc4SYMDNDimOWWZLqNPBWQHs9d7tWOUND9Pf6rjVthfuDdvqG9P72QC8hXeIEaaE7e6L9+GVNj9+/Phc+k0cOWvkUjpHPb22AKynZUxPDz9//vyy/wqb5+fnp9S3TcYMrGXLvWEtJfP6AeA8/cSt93fbY408XiGcWhyX0qcUsv97ADbWeHzJ+qe5F6uHW1jbl7R/Np6KSfdcSpvIKu4UgMVSRRv+dpk81UMorm3/rsQrZKMXIWxAVVoolLYZACsqeuoyeWqo1gpYh+vggIdiEEV2BcCRgh0zl1wmzw3TWgFrYi2clVaIpdguADhWsdF+t9seVpNTumuxgDWxTh47TAmAjDYAHCle6mXy1DAtF7COXUrz2GFkQGWaA7BQwNzL5AUXsH5ZGvmwMKCUzABYIKTlY3StF7CmagJ8a0kQWAomACwT0ew2yUIKWL+pyE4sC6xcKwCWKWgG8IIKWEch5jMtsgBLtQJgmXImAC+pgDUlI8ctZQGWagXAMuXODeBwKkztZBiX07IgS7ECYJlqJgB7LWBtH2/stY93ArEs0GKtAFimmAnAHgtYu4cTxreWhAcs1F4yoH0PXea6ZVsBsMy/JgB7LGDt3zILEF9eXn7VfE4ZiGUBJ7UCYJlS6gB7LWBtj4be7L9oYNyJn2Qyya3CTv/3339/2h9L3hrLnQIALIuFswE45L+Hklj9smE3lgXfnBUAyzRUB9hjAWvu4XztotaB7DwEIYvD36wAWCacOsAeC1injoxaQsxuLAvEQysAlummDrDHAtZh/ntMGkuIw3hWD43I3NyeFQDLfKYKsFVOKVvKtNWx/PfQutRL8XnrpcybACzTafEAx7ycrhTE7MingxOAT2sULFQB9ljAOpX/1tqJd+OGHfni4uJxGIYvfKf4X28AcAWAPRawJPlvbYj3YQ5XDNtfrN/OHWYArgCwxwKWJP89JlXJy+lj449Fry7szq+vr9/6vv9+TlADcGGAPRawYvLfKbk8rWsHdZhrADr82c17aae/ABiAw62b+7kvR8gk6jqLs9PSsSPsVOsZEeOamAKwTFY1p3ssYKXkv1OyBYjfvXv30fGXFtV8KQsdWysAlumr5nSPBazU/HcO4qurqw/bv1d7KYDMTSIrNV+KRjM2AmCZwGpO91bA0sh/50DWfhxR5q5ZKzVfKswluwsAlkmo4nRPhZ69WzIq+W9Du7GKL2VhY28FwDKNVZzuEWDN/HdOSke5sYovZWFjbwXAMo1VnO6xgKWd/56SM/wS2z6z8FHzLR+nxjz4exVfRo5pZg7AMmlVnO6tgGWZ/57ajS8vL2/7vg+FLrV3bslcqXssVjimmRkAy6RVAdhbAUvr/q9MwuNWY1pREmQVX+asWbMtAMvUzHb6y8tL2Gm+yoYrY1Uq/5WspmCOnO1LyXpK2QCwTOlsp3ssYJXOfyVSj6e5bi8uLv4wOgyS7UvJOkrZALBM6Wyneytg1cp/ZXL/z8oI5mxfxqzB2haAZQpnO91bActD/iuT/l+Yr66urodhuB535+vEAli2L2PmbW0LwDKFs53urYDlKf+VueB3q/FRxl+gDoCfuEWV7cvU+Vq0OyeAP6YKuA32LzkvIPdYwPKY/6b651i7AHf4/2HXDv8MYId/bjabxxxfas5Ro6+zAVhDrNQ+vBWwWsh/U7U+t3YAXMDj3gpYreW/BVzU7BAAXMB13gpYS8h/C7itiSEAuICbvBWwlp7/FnCpmyEA2NgV3gpY5L/GDi/cPQAbC+6tgEX+a+zwwt0DsLHg3gpY5L/GDi/cPQAbC+6tgEX+a+zwwt0DsLHgngpYfMLT2NkVugdgQ9G9FbDCUoHY0OEVugZgQ9G9FbAOlvqwvZz+ZLh8ui6gAAAbiuytgHVkqUBs6P8SXQOwocreCljHlsp9YcMAKNA1ABuK7KmANbfMkBdvNpu7JT2lY+hWV10DsJE7PBawgNjI2RW7BWAj8Z0XsI6ump3YKBgMuwVgI3EbKGBNQtz3/f05fSTbKASKdAvARjIrFrAeE9/9lLwy7hUnS1e8IQAbSa5YwHoIr/Qp/ZU/IDYKDOVuAVhZ0NDd+LK1J42ud08Pja9Y/Vrhm0LcK9ZwpFEfAGwgrGYBa//pISA2cFbjXQKwgQMVC1iPq9Xqbn+K4+7+uXRezIEPg0BR6BKAFUQ87EKrgDUFzQhx+CDYg8H0J7sMefF6vb4pOSZjzSsAwAYRolXAmnt7Rk2IObVlEDSJXQJwonBTzTQLWJK3Z2x/WYQX1hffiYFYOXASuwPgROGmmmkWsKRvz6gFMQc+lIMnoTsAThBtrolWASu2aKT5i0MqCfeKpUrZ2QGwsrZaBayUt0dqXr5LZQFiqVI2dgCsrKtWAUuS/x6bOveKlR3qvDsAVnaQFsDS/NcRxL/ds1aWlu6OKADAimGhlYfG5r9OIAZgxViSdgXAUqUEdloFrJT8dwriq6urUqe2AFgQI9omAKyoqBbAXdepfUW+4IEPAFaMJWlXACxVSmCnVYHOyX9ndmLro5cALIgRbRMAVlRUo4Clkf9OLcn4wAcAK8aStCsAlip1ws5TAWtuqoYQA7BSLMV0A8Axas3YauW/WgWsuWVp/bI5GAOAlWIpphsAjlGrAMCpBzhil2FwaguAY52gYA/ACiKGLrwWsOaWp3xqC4CVYimmGwCOUWvG1nsBa2rqihADsFIsxXQDwDFqTdhq5ZQl8t9jS1CCGIAVYim2CwCOVeyIvVZlt1T+OwVx5qktAFaIpdguADhWsSP2WhVo7QMcsUvL/J4TAMcKrmAPwAoiahSwLA9wSJcIwFKl/NgBsIIvNApYtfLf/eUDsEIwFO4CgDMF1ypg1cx/dxIAcGYwVGgOwJmiaxWwaue/QQYAzgyGCs0BOFN0jQKWh/wXgDMDoVJzAM4UXqOAtZ2Ciw+IsQNnBkOF5gCcKfpSCljswJmBUKk5AGcIr1XA8pD/AnBGIFRsCsAZ4isVsNwcgOASOiMYKjUF4Azhl1TAYgfOCISKTQE4Q3yNApaHAxzcB84IgspNATjDARoFLA8HOAA4IwgqNwXgRAcsrYDFJXRiIFRuBsCJDtAoYHk5wMEOnBgEDpoBcKITNApYnvJfduDEQKjcDIATHaBRwPKU/wJwYiBUbgbAiQ7QKGB5OcDBJXRiEDhoBsAJTtAoYHnLf9mBEwLBQRMATnCCRgHLW/4LwAmB4KAJACc4QaOA5S3/BeCEQHDQBIATnKBRwPKW/wJwQiA4aALACU7ILWB5zH8BOCEQHDQB4EgnLLWABcCRgeDEHIAjHaEBsMcCFgBHBoITcwCOdMRSC1gAHBkITswBONIRuQWsYRi+r9frm8hhi5jzQH8RmVUHAeBIOZdawGIHjgwEJ+YAHOGIJee/ABwRCI5MATjCGRoAezzAsZOAS+iIYHBiCsARjtAoYHk8wAHAEUHgzBSAIxySW8DyeoADgCOCwJkpAEc4JLeA5fX+LwBHBIEzUwAWOmTp+S9FLGEgODMDYKFDNAD2nP8CsDAQnJkBsNAhuQUs7/kvAAsDwZkZAAsdklvA2g7j4guEc8vlNpIwGByZAbDQGbkFrK7r7lar1aNwuCpmAFxF9qxBAVgg3znkv1xCCwLBoQkAC5yiALCbLxByCS1weEMmACxw1jkUsNiBBYHg0ASABU7JLWB5P8Cxk4AcWBAMzkwAWOCQ3AKW5wcY9pcPwIJgcGYCwCccopD/dt4PcLADO6MyYjoAbAxwCwc4ADiCGGemAHzCIbkFrFbyX4pYzsgUTgeAT+/AT9td9Fqo529mreS/AJzq4brtAPiE/rkFrFbyXwCuC2Lq6AA8o1xmVbZrKf8F4FSE6rYD4Bn9cyvQLeW/AFwXxNTRAXhGudwCVkv5LwCnIlS3HQDP78BZBayW8l8Argti6ugAPJ8DD8nC9v1f79+/v09tX6NdZs7fxAMbNXS1HBOAJ9TNDObmCljswJaY2fUNwBPanlsBC4DtILPsGYAn1D23AhYAW2Jm1zcAT+/AOQWsJvPBzLShyTXboVWmZwCezoHPqoDFDlwGOO1RAPiIopk7UdfaAY6dBJnrZgfWplPQHwAfESm3gNXaAQ4AFpDi1ASAnTqGaaGARAEAlqiEDQo4VQCAnTqGaaGARAEAlqiEDQo4VQCAnTqGaaGARAEAlqiEDQo4VQCAnTqGaaGARAEAlqiEDQo4VQCAnTqGaaGARAEAlqiEDQo4VeAfaAbqeAWaoYAAAAAASUVORK5CYII=;" parent="uFK_l24jNaTMNd1LNEe2-25" vertex="1">
          <mxGeometry x="1050" y="760" width="200" height="200" as="geometry" />
        </mxCell>
        <mxCell id="uFK_l24jNaTMNd1LNEe2-14" value="" style="endArrow=none;dashed=1;html=1;rounded=0;strokeWidth=2;endFill=1;exitX=0.75;exitY=0;exitDx=0;exitDy=0;startFill=1;startArrow=classic;entryX=0.25;entryY=1;entryDx=0;entryDy=0;" parent="uFK_l24jNaTMNd1LNEe2-25" source="uFK_l24jNaTMNd1LNEe2-13" target="uFK_l24jNaTMNd1LNEe2-17" edge="1">
          <mxGeometry width="50" height="50" relative="1" as="geometry">
            <mxPoint x="1250" y="881" as="sourcePoint" />
            <mxPoint x="1270" y="570" as="targetPoint" />
          </mxGeometry>
        </mxCell>
        <mxCell id="uFK_l24jNaTMNd1LNEe2-15" value="" style="endArrow=none;dashed=1;html=1;rounded=0;strokeWidth=2;endFill=1;exitX=0.75;exitY=0;exitDx=0;exitDy=0;startFill=1;startArrow=classic;entryX=0;entryY=1;entryDx=0;entryDy=0;" parent="uFK_l24jNaTMNd1LNEe2-25" source="uFK_l24jNaTMNd1LNEe2-13" target="uFK_l24jNaTMNd1LNEe2-18" edge="1">
          <mxGeometry width="50" height="50" relative="1" as="geometry">
            <mxPoint x="1340" y="820" as="sourcePoint" />
            <mxPoint x="1620" y="650" as="targetPoint" />
          </mxGeometry>
        </mxCell>
        <mxCell id="uFK_l24jNaTMNd1LNEe2-16" value="" style="endArrow=none;html=1;rounded=0;strokeWidth=5;" parent="uFK_l24jNaTMNd1LNEe2-25" edge="1">
          <mxGeometry width="50" height="50" relative="1" as="geometry">
            <mxPoint x="1500" y="470" as="sourcePoint" />
            <mxPoint x="1800" y="520" as="targetPoint" />
            <Array as="points">
              <mxPoint x="1500" y="240" />
              <mxPoint x="1800" y="240" />
            </Array>
          </mxGeometry>
        </mxCell>
        <mxCell id="uFK_l24jNaTMNd1LNEe2-17" value="" style="shape=image;verticalLabelPosition=bottom;labelBackgroundColor=default;verticalAlign=top;aspect=fixed;imageAspect=0;image=data:image/png,iVBORw0KGgoAAAANSUhEUgAAAPAAAADwCAYAAAA+VemSAAAAAXNSR0IArs4c6QAADzpJREFUeF7t3etxGzsShuFRiWGYLDMTK5I9jsRyJPJGYm0kcpEKg6w5HFtcXcwLMH1BA3j316kypgF+3c8OKVHkzcD/SIAEqk3gptqTc3ASIIEBwAwBCVScAIArbh5HJwEAMwMkUHECAK64eRydBADc+Aw8PT19Xq/Xvxp/mN0+PAA33PrtdvtzGIYvu91uDeI2Gw3gNvs6HPEeHx6I22w0gBvs60e8IG6wyS8PCcCN9fYcXhA31mgAt9fQa3hB3F7PuQM30tNUvCBupOHcgdtpZC5eELfTe+7AlfdyLl4QV9547sD1N1CKF8T1zwB34Ep7qIUXxJUOAHfgehunjRfE9c4Cd+DKemeFF8SVDQJ34PoaZo0XxPXNBHfgSnrmhRfElQwEd+B6GuWNF8T1zAZ34OC9KoUXxMEHgztw7AZNf4i/WCwepr/nLX1S/hSxdAfO788dOGBvIuGd4hnH8dd+v7/jQwHiDQuAg/UkGt5jPCAONig8hY7XkKh4QRxvVo4n4g4cpDdWeKc7583NzWeth8mdWCtJnToA1slRVMUQ79f9fv94e3v7E8SiFoW9GMCFW2OJd7Va/Zge3rQHiAs32mh7ABsFm1LWA+/xHCBO6Uh9awBcqGeeeEFcqMkO2wLYIeSPW5TAC+ICjXbYEsAOIb/doiReEDs322E7ADuE/BaOxdsjx3H8evyBVerD4TVxalKx1wHYqT8R7rynnsrz02mnATDaBsBGwUZ72nzuYXIndhgAwy0AbBjuVDrinZc7sXHTHcsD2DDsGvDygy3DAXAoDWCjkGvCC2KjIXAoGx7wdrsdHXKoYos5P23OfWAWr4lzzxBp/XK5DG0k9OGmRgL4/+N8t1wuHz2GG8SvKQNYOHEA/h2gG95ju7bb7ZdxHB80/4pJOApFLgewMHYA++MFMXdgIdvXyzsH7H7n/di43u/E3IGFlDsGXBwvd+JhADCA5yQQBm/viAE8Z3zfXNPhHTgc3p4RAxjAOQmExdsrYgDnjO+JtR3dgcPj7RExgAGckkA1eHtDDOCU8b2wpoM7cHV4e0IMYABfSqBavL0gBjCAzyVQPd4eEAMYwKcSaAZv64gBXBBw9PCF0XB5YgKSn6NEn6Gm/5wweviJ8zd72fPz88P0ZWSHHL7PLtLAhQAu2MSWw7eM9QXvPy973PeMuOUZ4g5sqahQ7Q94j6foFjGACw3itG3L4VvEegZv14hbniHuwBaKCtW8grdbxAAuNJDcgdODT8TbJWIAp8+R+sqWw9cKKxNvd4hbniGeQmspKlRnJt6uEAO40HDyFPpy8EK83SAGMIALJnB6ayW8XSAGcMHxbTn8ubEq420eccszxGvguYoKXWeEt2nEAC40rLwGfh+8Md5mEQMYwAUT+LO1E94mEQO44Pi2HH5qrM54m0Pc8gzxGjhVUaF1hfA2hRjAhYa399fAhfE2gxjAAHZPIAjeJhAD2H18XzdsOfxzsQbDWz3ilmeI18AZ/+ckGYSMbbpfqv1RSJK+aZ9Fu7kAzkhUMggZ23S/VBuNpG/aZ9FuLoAzEpUMQsY23S/VRiPpm/ZZtJsL4IxEJYOQsU33S7XRSPqmfRbt5gI4I1HJIGRs0/1SbTSSvmmfRbu5AM5IVDIIGdt0v1QbjaRv2mfRbi6AMxKVDELGNt0v1UYj6Zv2WbSbC+CMRCWDkLFN90u10Uj6pn0W7eYCOCNRySBkbNP9Um00kr5pn0W7uQDOSFQyCBnbdL9UG42kb9pn0W4ugDMSlQxCxjbdL9VGI+mb9lm0mxsa8NPT0+fFYvE090Frhy8ZhLmPocfrIvVtt9ut1+v1r6h9CAtYincKPNIgRB2AiOeK1Lfp61n3+/1dVMQhAWvgBXBEmmlnigR4OnFkxOEAa+EFcBqWiKuiAY6MOBRgTbwAjkgz7UwRAUdFHAawNl4Ap2GJuCoq4IiIQwC2wAvgiDTTzqQNeLPZPN3c3HxO2/36qkiviYsDtsI7DMPdcrl8vN6O9BX8Gik9K8lKbcDb7fbLOI4PLSIuCrgmvNNAAljCMv1abcAvvWsScTHAteEFcDpA6UoLwK0iLgK4RrwAlrJMv94KcIuI3QHXihfA6QClKy0Bt4bYFXDNeAEsZZl+vTXglhC7Aa4dL4DTAUpXegBuBbEL4BbwAljKMv16L8AtIDYH3AreoF93kq6irpX3B8TfvY5c8++JTQGD12sEm9wHxAltNQMM3oT0WXItARBfScgEMHivzSX/npEAiC+EpQ4YvBmjydLUBEB8JilVwOBNnUfWzUgAxCdCUwMM3hkjySW5CYD4Q2IqgMGbO4esFyQA4jfhiQGDVzCKXDo3ARC/JCcCDN6588d1CgmAeBiG2YDBqzCClJAm0D3iWYDBK507rldMoGvE2YDBqzh6lNJKoFvEWYDBqzVv1DFIoEvEyYDBazBylNROoDvESYDBqz1n1DNMoCvEVwGD13DUKG2VQDeILwIGr9V8UdchgS4QnwUMXocRYwvrBJpHfBHw7e3tT82vo5i6NY7j19Vq9cO6c8f6h29T+Hb473uv/dgnTgIFZu3LMAw/NROYvodptVqtz9W8+hQaxJrtoJZXAj3gnbJM+iEWiL3Gjn00EugFbxLgadH0ehjEGqNFDesEesKbDBjE1mNHfY0EesObBRjEGiNGDasEesSbDRjEVuNHXUkCveKdBRjEklHjWu0EesY7GzCItceQenMS6B2vCDCI54wc12glAN4/SV79PfC1wPkV07WE+HftBMD7mqgYMHdi7fGk3qUEwPs+HRXAIAadRwLg/TtlNcAg9hjhfvcA7+neqwIGcb/ALB85eM+nqw4YxJaj3F9t8F7uuQlgEPcHzeIRg/d6qmaAQXw9fFacTwC8adNhChjEaU1g1fsEwJs+EeaAG0M8pkfLyrkJLJdLl7mczrfdbt0/BmduLqeucwuqhXdsHT5fC8Ca03emlhfg2vFO8bkBbuFODGAHvcMweABuAa874NoRA7gNwK3gLQK4ZsQArh9wS3iLAa4VMYDrBtwa3qKAa0QM4HoBt4i3OODaEAO4TsCt4g0B2BKx9k8zAVwtYNVf/137uhOflP7s4vprpEsPzOL3xAD2HCW9vSL3LRLeUIAt7sSRB0Fv3NurFLVv0fCGA6yNOOogtEdO9xFF7FtEvCEBayKOOAi6o95mtWh9i4o3LGAtxNEGoU1u+o8qUt8i4w0N+Ih4sVg8zR2RSIMw9zH0eF2kvmmfRbufYX4Kfe6BSX51ox2+5CzajWu5XqS+aZ9Fu28AzkgUwBlhCZZqo5H0TfssglhOXgrgjEQlg5CxTfdLtdFI+qZ9Fu3mAjgjUckgZGzT/VJtNJK+aZ9Fu7kAzkhUMggZ23S/VBuNpG/aZ9FuLoAzEpUMQsY23S/VRiPpm/ZZtJsL4IxEJYOQsU33S7XRSPqmfRbt5gI4I1HJIGRs0/1SbTSSvmmfRbu5AM5IVDIIGdt0v1QbjaRv2mfRbi6AMxKVDELGNt0v1UYj6Zv2WbSbC+CMRCWDkLFN2KXT+4I9Drdardaa+0j6BmBhJ1oO/1Q0Fh9sIGzB8fK75XL5qFTLtUzLM8Qd2HWU0jYLiLhavFPiAE6bO5NVLYd/KbBAiKvGC2ATlulFewV8TGiz2Tzd3Nx8Tk9MdWX1eAGsOg/5xXoHPCVWCHETeAGcb071CgD/idMZcTN4AazKMb8YgF8ze35+fjj8Kuef/BSzrmgKL4Czeq+/GMDvMzVG3BxeAOubzKoI4L/jMkLcJF4AZ3HTXwzg05kqI24WL4D1TWZVBPD5uA7ZfDv8631WoH8vbhovgIXTIb0cwJcTFCJuHi+ApQKF1wP4eoAzEXeBF8DX58d0BYDT4s1E3A1eAKfNj9kqAKdHm4i4K7wATp8fk5UAzot1Qjy92ePM+6e7wwvgvPlRXw3g/EjPIO4SL4Dz50f1CgDPi/MD4m7xAnje/KhdBeD5Ub68Jv5frZ+kMf+Rv7+y5RniEzm0poQ6YRMAcMHWSMIveOyzW08fDLff7+/W67XLB8R5ZbDdbr8Mw/DTaz+vffhQO2HSrQGe4mgNcat4p14BGMAnE2gFcct4ASzEK/0JosL2piVqR9w6XgArjH+LT6E/xrLb7da1vSbuAS+AAZycQE2Ie8EL4OTxPb+whzvwm0cf/g0XPeEFMICzExjH8etqtfqRfaHDBb3hBbDCUHV2B/6dWETEPeIFMIBnJxAJca94ATx7fF8v7PEO/Ca2+8MbCb4rxDi7RM94ATx7bAAcAXHveAEMYIUEfpdwvxNvNpvpQwEetB5ArXV4K6Wwc50/hX6bnhti8L7GDmAACxN4d7k5YvC+bxeANce3olqGX9BthtgC7/R+79Vqta6odVUdNfwf9FeV5ofDWiI+vPXyv5rvnwZvnZMGYOO+1YAYvMZDYFgewIbhHktHRgxehwEw3ALAhuF+LL3ZbJ7OfF6z5BT3c59Og1cSe4xrAezcByPEj7vd7mvOa2LwOjfeaDsAGwV7qWxpxOAt0HSjLQFsFOy1sqUQg/daZ+r6dwAX7Nfz8/PD9D1Gykc4+3TaAu8wDI/L5fJO+TFQLjEBACcGZbXMAvGpD8sDr1UHy9YFcNn8f+9ujRi8AZpsdAQAGwWbW9YK8eHXVtPH89znnufKep42Kwc6txyA5yZncF3iF3Qb7JxVErxZcdkuBrBtvtnVgyMGb3ZHbS8AsG2+s6oHRQzeWd20vQjAtvnOrh4MMXhnd9L2QgDb5iuqHgQxeEVdtL0YwLb5iqsXRgxecQdtCwDYNl+V6oUQg1ele7ZFAGybr1p1Z8TgVeucbSEA2+arWn1CPL132uBvit+eE7yqXbMtBmDbfNWrGyMGr3rHbAsC2DZfk+pGiMFr0i3bogC2zdesujJi8Jp1yrYwgG3zNa0+/ZXR4dtIvwlfE4PXtEu2xQFsm6959ekLyMZxfJiDePpLpU+fPn01PyQbmCUAYLNo/QrPQQxev/5Y7gRgy3Qda+cgBq9jY4y3ArBxwJ7lUxCD17Mj9nsB2D5j1x0ufQsEeF1b4bIZgF1i9t3kFGLw+vbAazcAeyXtvM9bxOB1Dt9xOwA7hu291YR4sVj85/Al1d+992Y/nwQA7JMzu5CASQIANomVoiTgkwCAfXJmFxIwSQDAJrFSlAR8EgCwT87sQgImCQDYJFaKkoBPAgD2yZldSMAkgX8BXH/mtN7kI6wAAAAASUVORK5CYII=;" parent="uFK_l24jNaTMNd1LNEe2-25" vertex="1">
          <mxGeometry x="1255" y="480" width="70" height="70" as="geometry" />
        </mxCell>
        <mxCell id="uFK_l24jNaTMNd1LNEe2-18" value="" style="shape=image;verticalLabelPosition=bottom;labelBackgroundColor=default;verticalAlign=top;aspect=fixed;imageAspect=0;image=data:image/png,iVBORw0KGgoAAAANSUhEUgAAAPAAAADwCAYAAAA+VemSAAAAAXNSR0IArs4c6QAADzpJREFUeF7t3etxGzsShuFRiWGYLDMTK5I9jsRyJPJGYm0kcpEKg6w5HFtcXcwLMH1BA3j316kypgF+3c8OKVHkzcD/SIAEqk3gptqTc3ASIIEBwAwBCVScAIArbh5HJwEAMwMkUHECAK64eRydBADc+Aw8PT19Xq/Xvxp/mN0+PAA33PrtdvtzGIYvu91uDeI2Gw3gNvs6HPEeHx6I22w0gBvs60e8IG6wyS8PCcCN9fYcXhA31mgAt9fQa3hB3F7PuQM30tNUvCBupOHcgdtpZC5eELfTe+7AlfdyLl4QV9547sD1N1CKF8T1zwB34Ep7qIUXxJUOAHfgehunjRfE9c4Cd+DKemeFF8SVDQJ34PoaZo0XxPXNBHfgSnrmhRfElQwEd+B6GuWNF8T1zAZ34OC9KoUXxMEHgztw7AZNf4i/WCwepr/nLX1S/hSxdAfO788dOGBvIuGd4hnH8dd+v7/jQwHiDQuAg/UkGt5jPCAONig8hY7XkKh4QRxvVo4n4g4cpDdWeKc7583NzWeth8mdWCtJnToA1slRVMUQ79f9fv94e3v7E8SiFoW9GMCFW2OJd7Va/Zge3rQHiAs32mh7ABsFm1LWA+/xHCBO6Uh9awBcqGeeeEFcqMkO2wLYIeSPW5TAC+ICjXbYEsAOIb/doiReEDs322E7ADuE/BaOxdsjx3H8evyBVerD4TVxalKx1wHYqT8R7rynnsrz02mnATDaBsBGwUZ72nzuYXIndhgAwy0AbBjuVDrinZc7sXHTHcsD2DDsGvDygy3DAXAoDWCjkGvCC2KjIXAoGx7wdrsdHXKoYos5P23OfWAWr4lzzxBp/XK5DG0k9OGmRgL4/+N8t1wuHz2GG8SvKQNYOHEA/h2gG95ju7bb7ZdxHB80/4pJOApFLgewMHYA++MFMXdgIdvXyzsH7H7n/di43u/E3IGFlDsGXBwvd+JhADCA5yQQBm/viAE8Z3zfXNPhHTgc3p4RAxjAOQmExdsrYgDnjO+JtR3dgcPj7RExgAGckkA1eHtDDOCU8b2wpoM7cHV4e0IMYABfSqBavL0gBjCAzyVQPd4eEAMYwKcSaAZv64gBXBBw9PCF0XB5YgKSn6NEn6Gm/5wweviJ8zd72fPz88P0ZWSHHL7PLtLAhQAu2MSWw7eM9QXvPy973PeMuOUZ4g5sqahQ7Q94j6foFjGACw3itG3L4VvEegZv14hbniHuwBaKCtW8grdbxAAuNJDcgdODT8TbJWIAp8+R+sqWw9cKKxNvd4hbniGeQmspKlRnJt6uEAO40HDyFPpy8EK83SAGMIALJnB6ayW8XSAGcMHxbTn8ubEq420eccszxGvguYoKXWeEt2nEAC40rLwGfh+8Md5mEQMYwAUT+LO1E94mEQO44Pi2HH5qrM54m0Pc8gzxGjhVUaF1hfA2hRjAhYa399fAhfE2gxjAAHZPIAjeJhAD2H18XzdsOfxzsQbDWz3ilmeI18AZ/+ckGYSMbbpfqv1RSJK+aZ9Fu7kAzkhUMggZ23S/VBuNpG/aZ9FuLoAzEpUMQsY23S/VRiPpm/ZZtJsL4IxEJYOQsU33S7XRSPqmfRbt5gI4I1HJIGRs0/1SbTSSvmmfRbu5AM5IVDIIGdt0v1QbjaRv2mfRbi6AMxKVDELGNt0v1UYj6Zv2WbSbC+CMRCWDkLFN90u10Uj6pn0W7eYCOCNRySBkbNP9Um00kr5pn0W7uQDOSFQyCBnbdL9UG42kb9pn0W4ugDMSlQxCxjbdL9VGI+mb9lm0mxsa8NPT0+fFYvE090Frhy8ZhLmPocfrIvVtt9ut1+v1r6h9CAtYincKPNIgRB2AiOeK1Lfp61n3+/1dVMQhAWvgBXBEmmlnigR4OnFkxOEAa+EFcBqWiKuiAY6MOBRgTbwAjkgz7UwRAUdFHAawNl4Ap2GJuCoq4IiIQwC2wAvgiDTTzqQNeLPZPN3c3HxO2/36qkiviYsDtsI7DMPdcrl8vN6O9BX8Gik9K8lKbcDb7fbLOI4PLSIuCrgmvNNAAljCMv1abcAvvWsScTHAteEFcDpA6UoLwK0iLgK4RrwAlrJMv94KcIuI3QHXihfA6QClKy0Bt4bYFXDNeAEsZZl+vTXglhC7Aa4dL4DTAUpXegBuBbEL4BbwAljKMv16L8AtIDYH3AreoF93kq6irpX3B8TfvY5c8++JTQGD12sEm9wHxAltNQMM3oT0WXItARBfScgEMHivzSX/npEAiC+EpQ4YvBmjydLUBEB8JilVwOBNnUfWzUgAxCdCUwMM3hkjySW5CYD4Q2IqgMGbO4esFyQA4jfhiQGDVzCKXDo3ARC/JCcCDN6588d1CgmAeBiG2YDBqzCClJAm0D3iWYDBK507rldMoGvE2YDBqzh6lNJKoFvEWYDBqzVv1DFIoEvEyYDBazBylNROoDvESYDBqz1n1DNMoCvEVwGD13DUKG2VQDeILwIGr9V8UdchgS4QnwUMXocRYwvrBJpHfBHw7e3tT82vo5i6NY7j19Vq9cO6c8f6h29T+Hb473uv/dgnTgIFZu3LMAw/NROYvodptVqtz9W8+hQaxJrtoJZXAj3gnbJM+iEWiL3Gjn00EugFbxLgadH0ehjEGqNFDesEesKbDBjE1mNHfY0EesObBRjEGiNGDasEesSbDRjEVuNHXUkCveKdBRjEklHjWu0EesY7GzCItceQenMS6B2vCDCI54wc12glAN4/SV79PfC1wPkV07WE+HftBMD7mqgYMHdi7fGk3qUEwPs+HRXAIAadRwLg/TtlNcAg9hjhfvcA7+neqwIGcb/ALB85eM+nqw4YxJaj3F9t8F7uuQlgEPcHzeIRg/d6qmaAQXw9fFacTwC8adNhChjEaU1g1fsEwJs+EeaAG0M8pkfLyrkJLJdLl7mczrfdbt0/BmduLqeucwuqhXdsHT5fC8Ca03emlhfg2vFO8bkBbuFODGAHvcMweABuAa874NoRA7gNwK3gLQK4ZsQArh9wS3iLAa4VMYDrBtwa3qKAa0QM4HoBt4i3OODaEAO4TsCt4g0B2BKx9k8zAVwtYNVf/137uhOflP7s4vprpEsPzOL3xAD2HCW9vSL3LRLeUIAt7sSRB0Fv3NurFLVv0fCGA6yNOOogtEdO9xFF7FtEvCEBayKOOAi6o95mtWh9i4o3LGAtxNEGoU1u+o8qUt8i4w0N+Ih4sVg8zR2RSIMw9zH0eF2kvmmfRbufYX4Kfe6BSX51ox2+5CzajWu5XqS+aZ9Fu28AzkgUwBlhCZZqo5H0TfssglhOXgrgjEQlg5CxTfdLtdFI+qZ9Fu3mAjgjUckgZGzT/VJtNJK+aZ9Fu7kAzkhUMggZ23S/VBuNpG/aZ9FuLoAzEpUMQsY23S/VRiPpm/ZZtJsL4IxEJYOQsU33S7XRSPqmfRbt5gI4I1HJIGRs0/1SbTSSvmmfRbu5AM5IVDIIGdt0v1QbjaRv2mfRbi6AMxKVDELGNt0v1UYj6Zv2WbSbC+CMRCWDkLFN2KXT+4I9Drdardaa+0j6BmBhJ1oO/1Q0Fh9sIGzB8fK75XL5qFTLtUzLM8Qd2HWU0jYLiLhavFPiAE6bO5NVLYd/KbBAiKvGC2ATlulFewV8TGiz2Tzd3Nx8Tk9MdWX1eAGsOg/5xXoHPCVWCHETeAGcb071CgD/idMZcTN4AazKMb8YgF8ze35+fjj8Kuef/BSzrmgKL4Czeq+/GMDvMzVG3BxeAOubzKoI4L/jMkLcJF4AZ3HTXwzg05kqI24WL4D1TWZVBPD5uA7ZfDv8631WoH8vbhovgIXTIb0cwJcTFCJuHi+ApQKF1wP4eoAzEXeBF8DX58d0BYDT4s1E3A1eAKfNj9kqAKdHm4i4K7wATp8fk5UAzot1Qjy92ePM+6e7wwvgvPlRXw3g/EjPIO4SL4Dz50f1CgDPi/MD4m7xAnje/KhdBeD5Ub68Jv5frZ+kMf+Rv7+y5RniEzm0poQ6YRMAcMHWSMIveOyzW08fDLff7+/W67XLB8R5ZbDdbr8Mw/DTaz+vffhQO2HSrQGe4mgNcat4p14BGMAnE2gFcct4ASzEK/0JosL2piVqR9w6XgArjH+LT6E/xrLb7da1vSbuAS+AAZycQE2Ie8EL4OTxPb+whzvwm0cf/g0XPeEFMICzExjH8etqtfqRfaHDBb3hBbDCUHV2B/6dWETEPeIFMIBnJxAJca94ATx7fF8v7PEO/Ca2+8MbCb4rxDi7RM94ATx7bAAcAXHveAEMYIUEfpdwvxNvNpvpQwEetB5ArXV4K6Wwc50/hX6bnhti8L7GDmAACxN4d7k5YvC+bxeANce3olqGX9BthtgC7/R+79Vqta6odVUdNfwf9FeV5ofDWiI+vPXyv5rvnwZvnZMGYOO+1YAYvMZDYFgewIbhHktHRgxehwEw3ALAhuF+LL3ZbJ7OfF6z5BT3c59Og1cSe4xrAezcByPEj7vd7mvOa2LwOjfeaDsAGwV7qWxpxOAt0HSjLQFsFOy1sqUQg/daZ+r6dwAX7Nfz8/PD9D1Gykc4+3TaAu8wDI/L5fJO+TFQLjEBACcGZbXMAvGpD8sDr1UHy9YFcNn8f+9ujRi8AZpsdAQAGwWbW9YK8eHXVtPH89znnufKep42Kwc6txyA5yZncF3iF3Qb7JxVErxZcdkuBrBtvtnVgyMGb3ZHbS8AsG2+s6oHRQzeWd20vQjAtvnOrh4MMXhnd9L2QgDb5iuqHgQxeEVdtL0YwLb5iqsXRgxecQdtCwDYNl+V6oUQg1ele7ZFAGybr1p1Z8TgVeucbSEA2+arWn1CPL132uBvit+eE7yqXbMtBmDbfNWrGyMGr3rHbAsC2DZfk+pGiMFr0i3bogC2zdesujJi8Jp1yrYwgG3zNa0+/ZXR4dtIvwlfE4PXtEu2xQFsm6959ekLyMZxfJiDePpLpU+fPn01PyQbmCUAYLNo/QrPQQxev/5Y7gRgy3Qda+cgBq9jY4y3ArBxwJ7lUxCD17Mj9nsB2D5j1x0ufQsEeF1b4bIZgF1i9t3kFGLw+vbAazcAeyXtvM9bxOB1Dt9xOwA7hu291YR4sVj85/Al1d+992Y/nwQA7JMzu5CASQIANomVoiTgkwCAfXJmFxIwSQDAJrFSlAR8EgCwT87sQgImCQDYJFaKkoBPAgD2yZldSMAkgX8BXH/mtN7kI6wAAAAASUVORK5CYII=;opacity=80;" parent="uFK_l24jNaTMNd1LNEe2-25" vertex="1">
          <mxGeometry x="1620" y="390" width="60" height="60" as="geometry" />
        </mxCell>
        <mxCell id="rntUY4EcZAdOwlxDfYQu-1" value="1P_Layer" parent="0" />
        <mxCell id="rntUY4EcZAdOwlxDfYQu-2" value="" style="rounded=1;whiteSpace=wrap;html=1;fillColor=none;" vertex="1" parent="rntUY4EcZAdOwlxDfYQu-1">
          <mxGeometry x="280" y="1230" width="120" height="60" as="geometry" />
        </mxCell>
      </root>
    </mxGraphModel>
  </diagram>
</mxfile>
